<?xml version="1.0" encoding="UTF-8"?>
<svg xmlns="http://www.w3.org/2000/svg" xmlns:xlink="http://www.w3.org/1999/xlink" width="16pt" height="16pt" viewBox="0 0 16 16" version="1.1">
<g id="surface1">
<path style=" stroke:none;fill-rule:evenodd;fill:rgb(41.568627%,7.45098%,59.215686%);fill-opacity:1;" d="M 6.257812 3.597656 C 6.261719 3.617188 6.253906 3.621094 6.230469 3.621094 C 6.207031 3.617188 6.203125 3.617188 6.222656 3.628906 C 6.253906 3.648438 6.289062 3.625 6.277344 3.589844 C 6.265625 3.558594 6.253906 3.5625 6.257812 3.597656 M 8.046875 3.609375 C 8.046875 3.640625 8.039062 3.648438 8.007812 3.648438 C 7.976562 3.648438 7.96875 3.65625 7.96875 3.6875 C 7.96875 3.71875 7.960938 3.726562 7.929688 3.726562 L 7.886719 3.726562 L 7.886719 6.90625 L 7.925781 6.945312 C 7.949219 6.96875 7.96875 7.003906 7.96875 7.023438 C 7.972656 7.050781 7.988281 7.066406 8.015625 7.070312 C 8.039062 7.074219 8.074219 7.09375 8.09375 7.113281 C 8.113281 7.132812 8.148438 7.152344 8.171875 7.152344 C 8.199219 7.152344 8.207031 7.160156 8.207031 7.191406 C 8.207031 7.222656 8.214844 7.230469 8.246094 7.230469 C 8.28125 7.230469 8.289062 7.238281 8.289062 7.273438 C 8.289062 7.304688 8.296875 7.3125 8.328125 7.3125 C 8.359375 7.3125 8.367188 7.320312 8.367188 7.351562 C 8.367188 7.386719 8.375 7.390625 8.414062 7.390625 C 8.449219 7.390625 8.464844 7.398438 8.464844 7.414062 C 8.464844 7.445312 8.511719 7.472656 8.566406 7.472656 C 8.601562 7.472656 8.609375 7.480469 8.609375 7.511719 C 8.609375 7.542969 8.617188 7.550781 8.644531 7.550781 C 8.667969 7.550781 8.6875 7.566406 8.695312 7.589844 C 8.707031 7.617188 8.726562 7.625 8.777344 7.628906 C 8.828125 7.632812 8.847656 7.640625 8.863281 7.671875 C 8.878906 7.707031 8.886719 7.710938 8.984375 7.710938 C 9.078125 7.710938 9.085938 7.714844 9.089844 7.746094 L 9.097656 7.785156 L 10.105469 7.785156 L 10.109375 7.75 C 10.113281 7.714844 10.125 7.714844 10.238281 7.707031 C 10.351562 7.703125 10.359375 7.703125 10.363281 7.667969 C 10.371094 7.632812 10.378906 7.632812 10.488281 7.632812 C 10.59375 7.632812 10.609375 7.628906 10.636719 7.59375 C 10.664062 7.558594 10.683594 7.554688 10.785156 7.546875 C 10.894531 7.542969 10.90625 7.542969 10.910156 7.507812 C 10.914062 7.472656 10.921875 7.472656 11.03125 7.472656 C 11.140625 7.472656 11.148438 7.46875 11.160156 7.433594 C 11.167969 7.394531 11.175781 7.394531 11.285156 7.390625 C 11.390625 7.382812 11.402344 7.382812 11.40625 7.347656 C 11.410156 7.3125 11.417969 7.3125 11.53125 7.3125 C 11.636719 7.3125 11.652344 7.308594 11.6875 7.273438 C 11.714844 7.238281 11.738281 7.234375 11.832031 7.230469 C 11.933594 7.222656 11.945312 7.222656 11.949219 7.1875 C 11.953125 7.15625 11.960938 7.152344 12.074219 7.152344 C 12.1875 7.152344 12.191406 7.152344 12.191406 7.113281 C 12.191406 7.074219 12.195312 7.070312 12.3125 7.070312 C 12.421875 7.070312 12.429688 7.070312 12.433594 7.035156 C 12.441406 7.003906 12.449219 7 12.585938 6.992188 C 12.714844 6.984375 12.730469 6.980469 12.742188 6.949219 C 12.757812 6.914062 12.769531 6.910156 12.875 6.910156 C 12.988281 6.910156 12.992188 6.910156 12.992188 6.871094 C 12.992188 6.832031 12.996094 6.832031 13.113281 6.832031 C 13.230469 6.832031 13.230469 6.832031 13.230469 6.792969 C 13.230469 6.753906 13.234375 6.753906 13.351562 6.753906 C 13.460938 6.753906 13.476562 6.746094 13.511719 6.710938 C 13.546875 6.679688 13.570312 6.671875 13.667969 6.667969 C 13.773438 6.664062 13.785156 6.660156 13.789062 6.628906 C 13.792969 6.59375 13.800781 6.59375 13.914062 6.59375 C 14.027344 6.59375 14.03125 6.589844 14.03125 6.550781 C 14.03125 6.511719 14.035156 6.511719 14.152344 6.511719 C 14.269531 6.511719 14.273438 6.511719 14.273438 6.472656 C 14.273438 6.4375 14.28125 6.433594 14.347656 6.429688 C 14.414062 6.425781 14.425781 6.417969 14.429688 6.386719 C 14.433594 6.363281 14.445312 6.351562 14.472656 6.351562 C 14.503906 6.351562 14.511719 6.34375 14.511719 6.3125 C 14.511719 6.28125 14.519531 6.273438 14.550781 6.273438 C 14.582031 6.273438 14.59375 6.261719 14.59375 6.238281 C 14.59375 6.21875 14.609375 6.1875 14.632812 6.167969 C 14.65625 6.144531 14.671875 6.113281 14.671875 6.082031 C 14.671875 6.050781 14.6875 6.019531 14.710938 5.992188 L 14.753906 5.953125 L 14.75 5.605469 C 14.742188 5.257812 14.742188 5.257812 14.707031 5.25 C 14.675781 5.246094 14.671875 5.238281 14.671875 5.167969 C 14.671875 5.09375 14.667969 5.089844 14.632812 5.089844 C 14.601562 5.089844 14.59375 5.078125 14.59375 5.046875 C 14.59375 5.015625 14.585938 5.007812 14.550781 5.007812 C 14.519531 5.007812 14.511719 5 14.511719 4.96875 C 14.511719 4.9375 14.503906 4.929688 14.472656 4.929688 C 14.441406 4.929688 14.433594 4.921875 14.433594 4.886719 C 14.433594 4.855469 14.425781 4.847656 14.394531 4.847656 C 14.363281 4.847656 14.351562 4.839844 14.347656 4.8125 C 14.34375 4.777344 14.335938 4.777344 14.226562 4.769531 C 14.117188 4.765625 14.113281 4.765625 14.113281 4.726562 L 14.113281 4.6875 L 13.726562 4.6875 L 13.726562 4.726562 C 13.726562 4.761719 13.71875 4.769531 13.6875 4.769531 C 13.65625 4.769531 13.648438 4.777344 13.648438 4.808594 C 13.648438 4.839844 13.640625 4.847656 13.609375 4.847656 C 13.574219 4.847656 13.566406 4.855469 13.566406 4.886719 C 13.566406 4.917969 13.558594 4.929688 13.527344 4.929688 C 13.5 4.929688 13.488281 4.9375 13.484375 4.964844 C 13.480469 4.992188 13.46875 5 13.40625 5.007812 C 13.347656 5.015625 13.335938 5.023438 13.332031 5.050781 C 13.328125 5.078125 13.316406 5.089844 13.285156 5.089844 C 13.257812 5.089844 13.246094 5.097656 13.246094 5.128906 C 13.246094 5.160156 13.238281 5.167969 13.179688 5.171875 C 13.128906 5.175781 13.109375 5.183594 13.097656 5.210938 C 13.085938 5.234375 13.066406 5.246094 13.046875 5.246094 C 13.019531 5.246094 13.007812 5.257812 13.003906 5.285156 C 13 5.316406 12.988281 5.320312 12.925781 5.324219 C 12.863281 5.328125 12.847656 5.335938 12.84375 5.363281 C 12.839844 5.394531 12.828125 5.402344 12.726562 5.40625 C 12.625 5.414062 12.617188 5.417969 12.609375 5.453125 C 12.605469 5.484375 12.597656 5.488281 12.488281 5.488281 C 12.371094 5.488281 12.367188 5.488281 12.367188 5.527344 L 12.367188 5.566406 L 11.800781 5.566406 C 11.460938 5.566406 11.230469 5.5625 11.230469 5.554688 C 11.230469 5.507812 11.179688 5.488281 11.054688 5.488281 C 10.9375 5.488281 10.929688 5.484375 10.921875 5.449219 C 10.914062 5.414062 10.902344 5.410156 10.8125 5.40625 C 10.726562 5.402344 10.710938 5.394531 10.695312 5.363281 C 10.683594 5.335938 10.667969 5.328125 10.605469 5.328125 C 10.539062 5.328125 10.53125 5.324219 10.523438 5.292969 C 10.519531 5.261719 10.507812 5.253906 10.445312 5.25 C 10.382812 5.246094 10.371094 5.242188 10.363281 5.210938 C 10.359375 5.183594 10.347656 5.175781 10.296875 5.167969 C 10.25 5.164062 10.226562 5.148438 10.214844 5.125 C 10.207031 5.097656 10.1875 5.089844 10.15625 5.089844 C 10.121094 5.089844 10.113281 5.082031 10.113281 5.046875 C 10.113281 5.011719 10.105469 5.007812 10.03125 5.007812 C 9.957031 5.007812 9.953125 5.003906 9.953125 4.96875 C 9.953125 4.9375 9.945312 4.929688 9.910156 4.929688 C 9.878906 4.929688 9.871094 4.921875 9.871094 4.886719 C 9.871094 4.855469 9.863281 4.847656 9.832031 4.847656 C 9.804688 4.847656 9.792969 4.839844 9.789062 4.8125 C 9.785156 4.785156 9.773438 4.773438 9.730469 4.769531 C 9.703125 4.769531 9.667969 4.75 9.652344 4.730469 C 9.636719 4.707031 9.609375 4.6875 9.589844 4.6875 C 9.574219 4.683594 9.558594 4.664062 9.554688 4.644531 C 9.550781 4.617188 9.539062 4.609375 9.511719 4.609375 C 9.480469 4.609375 9.472656 4.601562 9.472656 4.566406 C 9.472656 4.535156 9.464844 4.527344 9.433594 4.527344 C 9.398438 4.527344 9.390625 4.519531 9.390625 4.488281 C 9.390625 4.457031 9.382812 4.449219 9.351562 4.449219 C 9.320312 4.449219 9.3125 4.441406 9.3125 4.410156 C 9.3125 4.390625 9.292969 4.355469 9.273438 4.335938 C 9.253906 4.3125 9.234375 4.28125 9.230469 4.265625 C 9.226562 4.246094 9.207031 4.226562 9.1875 4.214844 C 9.164062 4.207031 9.152344 4.1875 9.152344 4.164062 C 9.152344 4.136719 9.144531 4.128906 9.113281 4.128906 C 9.078125 4.128906 9.070312 4.121094 9.070312 4.089844 C 9.070312 4.054688 9.0625 4.046875 9.03125 4.046875 C 9 4.046875 8.992188 4.039062 8.992188 4.007812 C 8.992188 3.953125 8.964844 3.902344 8.933594 3.902344 C 8.921875 3.902344 8.910156 3.886719 8.910156 3.855469 C 8.910156 3.816406 8.90625 3.808594 8.871094 3.808594 C 8.835938 3.808594 8.832031 3.800781 8.832031 3.730469 L 8.832031 3.648438 L 8.675781 3.644531 C 8.527344 3.640625 8.519531 3.636719 8.515625 3.605469 C 8.511719 3.570312 8.507812 3.566406 8.277344 3.566406 L 8.046875 3.566406 L 8.046875 3.609375 M 9.507812 3.832031 C 9.492188 3.847656 9.496094 3.855469 9.511719 3.863281 C 9.539062 3.871094 9.554688 3.855469 9.539062 3.828125 C 9.53125 3.816406 9.523438 3.816406 9.507812 3.832031 M 9.578125 3.832031 C 9.59375 3.847656 9.597656 3.851562 9.585938 3.847656 C 9.566406 3.835938 9.5625 3.839844 9.578125 3.855469 C 9.605469 3.882812 9.648438 3.890625 9.648438 3.871094 C 9.648438 3.859375 9.660156 3.863281 9.679688 3.871094 C 9.71875 3.890625 9.726562 3.859375 9.691406 3.828125 C 9.667969 3.800781 9.632812 3.804688 9.632812 3.832031 C 9.632812 3.84375 9.625 3.859375 9.617188 3.863281 C 9.609375 3.867188 9.605469 3.859375 9.613281 3.839844 C 9.617188 3.816406 9.613281 3.808594 9.582031 3.808594 C 9.546875 3.808594 9.546875 3.808594 9.578125 3.832031 M 5.210938 3.855469 C 5.183594 3.882812 5.183594 3.886719 5.210938 3.882812 C 5.226562 3.878906 5.238281 3.867188 5.242188 3.851562 C 5.246094 3.816406 5.242188 3.816406 5.210938 3.855469 M 9.488281 3.90625 C 9.488281 3.9375 9.496094 3.953125 9.511719 3.953125 C 9.527344 3.953125 9.53125 3.941406 9.523438 3.925781 C 9.515625 3.90625 9.519531 3.902344 9.535156 3.910156 C 9.550781 3.921875 9.554688 3.917969 9.546875 3.90625 C 9.539062 3.894531 9.527344 3.890625 9.519531 3.894531 C 9.511719 3.902344 9.503906 3.894531 9.5 3.882812 C 9.496094 3.871094 9.488281 3.882812 9.488281 3.90625 M 9.953125 3.902344 C 9.953125 3.910156 9.96875 3.914062 9.988281 3.914062 C 10.007812 3.914062 10.023438 3.921875 10.023438 3.929688 C 10.023438 3.941406 10.03125 3.953125 10.035156 3.960938 C 10.042969 3.96875 10.046875 3.964844 10.046875 3.953125 C 10.046875 3.941406 10.054688 3.9375 10.078125 3.953125 C 10.117188 3.972656 10.128906 3.9375 10.09375 3.90625 C 10.066406 3.890625 9.953125 3.882812 9.953125 3.902344 M 9.523438 3.957031 C 9.480469 3.980469 9.480469 3.988281 9.511719 4.015625 C 9.523438 4.027344 9.535156 4.03125 9.535156 4.023438 C 9.535156 4.015625 9.546875 4.019531 9.558594 4.03125 C 9.574219 4.042969 9.578125 4.058594 9.574219 4.066406 C 9.566406 4.078125 9.570312 4.082031 9.582031 4.074219 C 9.597656 4.066406 9.597656 4.054688 9.585938 4.039062 C 9.574219 4.03125 9.566406 4 9.566406 3.976562 C 9.5625 3.957031 9.5625 3.9375 9.558594 3.9375 C 9.558594 3.9375 9.542969 3.949219 9.523438 3.957031 M 9.585938 4.097656 C 9.5625 4.113281 9.5625 4.113281 9.585938 4.105469 C 9.601562 4.101562 9.625 4.109375 9.640625 4.121094 C 9.652344 4.136719 9.671875 4.144531 9.675781 4.136719 C 9.703125 4.109375 9.617188 4.074219 9.585938 4.097656 M 11.234375 4.136719 C 11.230469 4.164062 11.253906 4.1875 11.28125 4.1875 C 11.296875 4.1875 11.308594 4.175781 11.308594 4.167969 C 11.308594 4.15625 11.300781 4.148438 11.292969 4.152344 C 11.285156 4.15625 11.28125 4.152344 11.28125 4.140625 C 11.28125 4.125 11.277344 4.125 11.265625 4.140625 C 11.253906 4.160156 11.25 4.160156 11.242188 4.140625 C 11.238281 4.128906 11.234375 4.128906 11.234375 4.136719 M 9.742188 4.195312 C 9.730469 4.214844 9.734375 4.273438 9.746094 4.273438 C 9.753906 4.273438 9.761719 4.253906 9.761719 4.230469 C 9.761719 4.199219 9.75 4.179688 9.742188 4.195312 M 12.433594 4.402344 C 12.433594 4.417969 12.4375 4.429688 12.445312 4.425781 C 12.457031 4.417969 12.464844 4.421875 12.472656 4.433594 C 12.476562 4.441406 12.488281 4.449219 12.496094 4.449219 C 12.519531 4.449219 12.515625 4.386719 12.496094 4.375 C 12.480469 4.367188 12.480469 4.375 12.488281 4.398438 C 12.5 4.433594 12.496094 4.433594 12.476562 4.414062 C 12.460938 4.402344 12.453125 4.386719 12.457031 4.378906 C 12.460938 4.375 12.457031 4.367188 12.449219 4.367188 C 12.441406 4.367188 12.433594 4.382812 12.433594 4.402344 M 9.964844 4.441406 C 9.96875 4.453125 9.976562 4.460938 9.980469 4.457031 C 9.988281 4.453125 10.003906 4.460938 10.015625 4.476562 C 10.035156 4.496094 10.03125 4.5 10 4.488281 C 9.976562 4.480469 9.96875 4.480469 9.976562 4.496094 C 9.992188 4.519531 10.042969 4.515625 10.054688 4.488281 C 10.058594 4.472656 10.054688 4.464844 10.042969 4.46875 C 10.03125 4.46875 10.027344 4.464844 10.027344 4.453125 C 10.027344 4.445312 10.015625 4.433594 9.992188 4.429688 C 9.964844 4.421875 9.957031 4.425781 9.964844 4.441406 M 12.832031 4.480469 C 12.832031 4.5 12.839844 4.507812 12.847656 4.503906 C 12.855469 4.5 12.867188 4.503906 12.871094 4.511719 C 12.878906 4.519531 12.890625 4.527344 12.898438 4.527344 C 12.917969 4.527344 12.914062 4.46875 12.894531 4.453125 C 12.882812 4.449219 12.878906 4.457031 12.886719 4.480469 C 12.898438 4.511719 12.898438 4.515625 12.875 4.496094 C 12.863281 4.480469 12.855469 4.464844 12.859375 4.460938 C 12.863281 4.453125 12.859375 4.449219 12.847656 4.449219 C 12.839844 4.449219 12.832031 4.460938 12.832031 4.480469 M 10.078125 4.519531 C 10.078125 4.519531 10.089844 4.53125 10.105469 4.542969 C 10.125 4.558594 10.128906 4.558594 10.128906 4.539062 C 10.128906 4.523438 10.117188 4.511719 10.105469 4.511719 C 10.089844 4.511719 10.078125 4.515625 10.078125 4.519531 M 13.230469 4.597656 C 13.230469 4.640625 13.253906 4.652344 13.273438 4.621094 C 13.277344 4.613281 13.273438 4.59375 13.257812 4.578125 C 13.234375 4.554688 13.230469 4.554688 13.230469 4.597656 M 10.304688 4.699219 C 10.28125 4.726562 10.292969 4.738281 10.335938 4.746094 C 10.371094 4.753906 10.378906 4.726562 10.347656 4.695312 C 10.332031 4.679688 10.324219 4.679688 10.304688 4.699219 M 13.125 4.78125 C 13.128906 4.796875 13.117188 4.808594 13.101562 4.804688 C 13.085938 4.804688 13.070312 4.808594 13.070312 4.820312 C 13.070312 4.828125 13.089844 4.832031 13.109375 4.828125 C 13.144531 4.824219 13.171875 4.753906 13.140625 4.753906 C 13.128906 4.753906 13.125 4.765625 13.125 4.78125 M 12.976562 4.863281 C 12.976562 4.886719 12.964844 4.894531 12.945312 4.894531 C 12.929688 4.894531 12.910156 4.902344 12.90625 4.910156 C 12.902344 4.917969 12.917969 4.917969 12.945312 4.914062 C 12.984375 4.910156 13.023438 4.832031 12.984375 4.832031 C 12.980469 4.832031 12.976562 4.847656 12.976562 4.863281 M 12.832031 4.9375 C 12.820312 4.949219 12.820312 4.960938 12.828125 4.960938 C 12.835938 4.960938 12.851562 4.949219 12.863281 4.9375 C 12.875 4.921875 12.875 4.910156 12.867188 4.910156 C 12.859375 4.910156 12.84375 4.921875 12.832031 4.9375 M 10.964844 5.003906 C 10.972656 5.011719 10.964844 5.03125 10.949219 5.046875 C 10.925781 5.070312 10.929688 5.074219 10.976562 5.070312 C 11.015625 5.066406 11.019531 5.0625 11.003906 5.046875 C 10.992188 5.039062 10.980469 5.027344 10.980469 5.019531 C 10.980469 5.011719 10.972656 5 10.964844 4.996094 C 10.960938 4.988281 10.960938 4.992188 10.964844 5.003906 M 12.671875 5.003906 C 12.671875 5.011719 12.667969 5.027344 12.664062 5.042969 C 12.660156 5.058594 12.667969 5.070312 12.679688 5.070312 C 12.699219 5.070312 12.753906 5.023438 12.753906 5.003906 C 12.753906 4.988281 12.671875 4.988281 12.671875 5.003906 M 11.195312 5.082031 C 11.132812 5.101562 11.175781 5.140625 11.265625 5.144531 C 11.3125 5.148438 11.316406 5.144531 11.285156 5.132812 C 11.265625 5.121094 11.246094 5.105469 11.246094 5.09375 C 11.246094 5.070312 11.242188 5.070312 11.195312 5.082031 M 12.449219 5.101562 C 12.40625 5.140625 12.40625 5.144531 12.457031 5.148438 C 12.5 5.152344 12.527344 5.113281 12.5 5.085938 C 12.492188 5.078125 12.472656 5.082031 12.449219 5.101562 M 11.726562 5.191406 C 11.726562 5.222656 11.734375 5.230469 11.761719 5.230469 C 11.785156 5.230469 11.792969 5.226562 11.785156 5.207031 C 11.78125 5.195312 11.78125 5.183594 11.789062 5.1875 C 11.816406 5.191406 11.894531 5.183594 11.886719 5.179688 C 11.847656 5.144531 11.726562 5.152344 11.726562 5.191406 M 11.910156 5.175781 C 11.914062 5.191406 11.921875 5.207031 11.921875 5.214844 C 11.921875 5.222656 11.933594 5.230469 11.953125 5.226562 C 11.96875 5.226562 11.984375 5.21875 11.984375 5.210938 C 11.984375 5.203125 11.992188 5.203125 12.003906 5.210938 C 12.015625 5.214844 12.015625 5.214844 12.007812 5.203125 C 12.003906 5.191406 12.007812 5.183594 12.015625 5.183594 C 12.027344 5.183594 12.027344 5.175781 12.023438 5.167969 C 12.015625 5.15625 12.003906 5.160156 11.992188 5.179688 C 11.980469 5.195312 11.96875 5.199219 11.96875 5.1875 C 11.96875 5.175781 11.957031 5.171875 11.941406 5.179688 C 11.921875 5.1875 11.917969 5.183594 11.925781 5.171875 C 11.933594 5.160156 11.929688 5.152344 11.917969 5.152344 C 11.910156 5.152344 11.90625 5.164062 11.910156 5.175781 M 11.808594 5.214844 C 11.808594 5.226562 11.828125 5.230469 11.855469 5.230469 C 11.886719 5.230469 11.902344 5.226562 11.894531 5.214844 C 11.890625 5.207031 11.867188 5.199219 11.847656 5.199219 C 11.824219 5.199219 11.808594 5.207031 11.808594 5.214844 M 2.488281 5.773438 C 2.460938 5.804688 2.460938 5.804688 2.488281 5.800781 C 2.503906 5.800781 2.519531 5.785156 2.519531 5.769531 C 2.527344 5.738281 2.523438 5.738281 2.488281 5.773438 M 9.886719 5.832031 C 9.886719 5.863281 9.894531 5.871094 9.929688 5.871094 C 9.964844 5.871094 9.96875 5.875 9.96875 5.960938 C 9.96875 6.042969 9.964844 6.046875 9.929688 6.046875 C 9.894531 6.046875 9.886719 6.054688 9.886719 6.089844 C 9.886719 6.125 9.882812 6.128906 9.789062 6.128906 C 9.671875 6.128906 9.632812 6.101562 9.632812 6.023438 C 9.632812 5.972656 9.625 5.96875 9.589844 5.964844 L 9.542969 5.964844 L 9.589844 5.957031 C 9.628906 5.949219 9.632812 5.945312 9.632812 5.871094 L 9.632812 5.792969 L 9.761719 5.792969 C 9.886719 5.792969 9.886719 5.792969 9.886719 5.832031 M 2.019531 6.476562 C 2.023438 6.496094 2.015625 6.503906 1.992188 6.5 C 1.964844 6.496094 1.964844 6.496094 1.984375 6.511719 C 2.011719 6.53125 2.050781 6.503906 2.039062 6.472656 C 2.023438 6.4375 2.011719 6.441406 2.019531 6.476562 M 1.6875 7.136719 C 1.664062 7.164062 1.664062 7.164062 1.6875 7.160156 C 1.703125 7.160156 1.71875 7.144531 1.722656 7.128906 C 1.726562 7.097656 1.722656 7.097656 1.6875 7.136719 M 1.601562 8.4375 C 1.601562 8.441406 1.609375 8.453125 1.625 8.464844 C 1.644531 8.480469 1.648438 8.480469 1.648438 8.457031 C 1.648438 8.445312 1.636719 8.433594 1.625 8.433594 C 1.609375 8.433594 1.601562 8.433594 1.601562 8.4375 M 1.878906 9.039062 C 1.875 9.046875 1.878906 9.058594 1.890625 9.066406 C 1.917969 9.082031 1.957031 9.089844 1.945312 9.074219 C 1.9375 9.070312 1.925781 9.0625 1.914062 9.0625 C 1.90625 9.0625 1.898438 9.054688 1.898438 9.042969 C 1.90625 9.019531 1.894531 9.019531 1.878906 9.039062 M 2.449219 9.257812 C 2.449219 9.261719 2.460938 9.28125 2.480469 9.296875 C 2.507812 9.332031 2.515625 9.308594 2.492188 9.269531 C 2.476562 9.25 2.449219 9.238281 2.449219 9.257812 M 6.113281 9.335938 C 6.113281 9.351562 6.121094 9.359375 6.132812 9.355469 C 6.160156 9.347656 6.164062 9.3125 6.136719 9.3125 C 6.125 9.3125 6.113281 9.324219 6.113281 9.335938 M 2.832031 9.464844 C 2.832031 9.476562 2.84375 9.488281 2.859375 9.488281 C 2.878906 9.488281 2.878906 9.484375 2.863281 9.464844 C 2.851562 9.449219 2.839844 9.441406 2.839844 9.441406 C 2.835938 9.441406 2.832031 9.449219 2.832031 9.464844 M 8.128906 9.503906 C 8.128906 9.511719 8.121094 9.519531 8.113281 9.511719 C 8.105469 9.507812 8.089844 9.515625 8.082031 9.527344 C 8.070312 9.539062 8.070312 9.554688 8.078125 9.558594 C 8.09375 9.570312 8.152344 9.507812 8.136719 9.492188 C 8.132812 9.488281 8.128906 9.492188 8.128906 9.503906 M 3.390625 9.65625 C 3.390625 9.683594 3.453125 9.734375 3.460938 9.714844 C 3.46875 9.707031 3.460938 9.691406 3.449219 9.679688 C 3.433594 9.667969 3.425781 9.667969 3.421875 9.675781 C 3.421875 9.683594 3.417969 9.675781 3.40625 9.664062 C 3.398438 9.652344 3.390625 9.648438 3.390625 9.65625 M 9.632812 9.898438 C 9.632812 9.90625 9.65625 9.929688 9.679688 9.949219 L 9.726562 9.984375 L 9.714844 9.949219 C 9.707031 9.929688 9.691406 9.914062 9.679688 9.914062 C 9.671875 9.917969 9.664062 9.914062 9.664062 9.902344 C 9.664062 9.894531 9.65625 9.886719 9.648438 9.886719 C 9.640625 9.886719 9.632812 9.894531 9.632812 9.898438 M 4.351562 10.058594 C 4.351562 10.066406 4.371094 10.085938 4.394531 10.101562 C 4.433594 10.132812 4.433594 10.132812 4.429688 10.101562 C 4.425781 10.085938 4.414062 10.074219 4.402344 10.074219 C 4.390625 10.078125 4.382812 10.074219 4.382812 10.0625 C 4.382812 10.054688 4.375 10.046875 4.367188 10.046875 C 4.359375 10.046875 4.351562 10.054688 4.351562 10.058594 M 9.792969 10.058594 C 9.792969 10.082031 9.851562 10.132812 9.863281 10.113281 C 9.867188 10.105469 9.859375 10.089844 9.847656 10.078125 C 9.835938 10.070312 9.824219 10.066406 9.824219 10.074219 C 9.824219 10.082031 9.816406 10.078125 9.808594 10.0625 C 9.800781 10.050781 9.792969 10.046875 9.792969 10.058594 M 4.757812 10.25 C 4.761719 10.265625 4.773438 10.277344 4.789062 10.28125 C 4.804688 10.285156 4.8125 10.277344 4.804688 10.261719 C 4.792969 10.230469 4.753906 10.222656 4.757812 10.25 M 5.078125 10.425781 C 5.078125 10.453125 5.082031 10.457031 5.097656 10.445312 C 5.113281 10.433594 5.121094 10.433594 5.121094 10.445312 C 5.121094 10.453125 5.105469 10.46875 5.09375 10.480469 C 5.078125 10.488281 5.070312 10.496094 5.082031 10.496094 C 5.109375 10.496094 5.136719 10.453125 5.128906 10.425781 C 5.109375 10.386719 5.078125 10.382812 5.078125 10.425781 M 1.359375 10.679688 C 1.359375 10.679688 1.371094 10.691406 1.382812 10.703125 C 1.402344 10.71875 1.40625 10.71875 1.40625 10.699219 C 1.40625 10.683594 1.398438 10.671875 1.382812 10.671875 C 1.371094 10.671875 1.359375 10.675781 1.359375 10.679688 M 7.820312 11.304688 C 7.832031 11.3125 7.835938 11.320312 7.832031 11.328125 C 7.824219 11.339844 7.832031 11.34375 7.84375 11.339844 C 7.851562 11.339844 7.863281 11.34375 7.863281 11.355469 C 7.863281 11.363281 7.867188 11.378906 7.875 11.382812 C 7.878906 11.390625 7.882812 11.382812 7.882812 11.371094 C 7.878906 11.339844 7.839844 11.296875 7.816406 11.296875 C 7.808594 11.296875 7.808594 11.300781 7.820312 11.304688 M 1.617188 11.445312 L 1.582031 11.484375 L 1.613281 11.515625 C 1.640625 11.535156 1.648438 11.5625 1.648438 11.628906 C 1.648438 11.707031 1.652344 11.710938 1.6875 11.710938 C 1.726562 11.710938 1.726562 11.71875 1.726562 11.792969 C 1.726562 11.835938 1.734375 11.871094 1.742188 11.871094 C 1.753906 11.871094 1.753906 11.882812 1.75 11.894531 C 1.746094 11.90625 1.753906 11.925781 1.773438 11.933594 C 1.796875 11.945312 1.808594 11.972656 1.8125 12.019531 C 1.816406 12.074219 1.824219 12.089844 1.851562 12.105469 C 1.875 12.113281 1.886719 12.132812 1.886719 12.152344 C 1.886719 12.171875 1.90625 12.207031 1.925781 12.226562 C 1.949219 12.25 1.96875 12.28125 1.96875 12.308594 C 1.96875 12.34375 1.976562 12.351562 2.007812 12.351562 C 2.046875 12.351562 2.046875 12.355469 2.046875 12.433594 C 2.046875 12.507812 2.050781 12.511719 2.089844 12.511719 C 2.121094 12.511719 2.128906 12.519531 2.128906 12.550781 C 2.128906 12.570312 2.144531 12.605469 2.167969 12.625 C 2.1875 12.648438 2.207031 12.683594 2.210938 12.703125 C 2.214844 12.730469 2.226562 12.746094 2.253906 12.75 C 2.277344 12.753906 2.289062 12.765625 2.289062 12.792969 C 2.289062 12.820312 2.296875 12.832031 2.320312 12.832031 C 2.355469 12.832031 2.363281 12.847656 2.371094 12.929688 C 2.375 12.972656 2.386719 12.984375 2.414062 12.988281 C 2.4375 12.992188 2.449219 13.003906 2.449219 13.03125 C 2.449219 13.0625 2.457031 13.070312 2.488281 13.070312 C 2.519531 13.070312 2.527344 13.078125 2.527344 13.113281 C 2.527344 13.144531 2.535156 13.152344 2.566406 13.152344 C 2.59375 13.152344 2.605469 13.160156 2.609375 13.1875 C 2.621094 13.246094 2.753906 13.25 2.753906 13.191406 C 2.753906 13.15625 2.757812 13.152344 2.832031 13.152344 C 2.90625 13.152344 2.910156 13.148438 2.910156 13.113281 C 2.910156 13.074219 2.917969 13.070312 2.992188 13.070312 C 3.066406 13.070312 3.070312 13.070312 3.070312 13.03125 C 3.070312 12.996094 3.078125 12.992188 3.148438 12.988281 C 3.210938 12.984375 3.226562 12.980469 3.230469 12.949219 C 3.234375 12.917969 3.242188 12.910156 3.3125 12.910156 C 3.386719 12.910156 3.390625 12.910156 3.390625 12.871094 C 3.390625 12.835938 3.398438 12.832031 3.472656 12.832031 C 3.546875 12.832031 3.550781 12.828125 3.550781 12.792969 C 3.550781 12.753906 3.558594 12.753906 3.632812 12.753906 C 3.707031 12.753906 3.710938 12.75 3.710938 12.710938 C 3.710938 12.675781 3.71875 12.671875 3.792969 12.671875 C 3.867188 12.671875 3.871094 12.667969 3.871094 12.632812 C 3.871094 12.59375 3.878906 12.59375 3.953125 12.59375 C 4.027344 12.59375 4.03125 12.589844 4.03125 12.550781 C 4.03125 12.515625 4.039062 12.511719 4.113281 12.511719 C 4.1875 12.511719 4.191406 12.507812 4.191406 12.472656 C 4.191406 12.433594 4.199219 12.433594 4.273438 12.433594 C 4.347656 12.433594 4.351562 12.429688 4.351562 12.390625 C 4.351562 12.355469 4.355469 12.351562 4.433594 12.351562 C 4.507812 12.351562 4.511719 12.347656 4.511719 12.3125 C 4.511719 12.273438 4.515625 12.273438 4.59375 12.273438 C 4.667969 12.273438 4.671875 12.269531 4.671875 12.230469 C 4.671875 12.195312 4.675781 12.191406 4.753906 12.191406 C 4.828125 12.191406 4.832031 12.1875 4.832031 12.152344 C 4.832031 12.113281 4.835938 12.113281 4.910156 12.113281 C 4.988281 12.113281 4.992188 12.109375 4.992188 12.070312 C 4.992188 12.039062 5 12.03125 5.03125 12.03125 C 5.09375 12.03125 5.09375 11.835938 5.03125 11.789062 C 4.996094 11.761719 4.992188 11.746094 4.988281 11.621094 C 4.984375 11.488281 4.980469 11.480469 4.949219 11.480469 C 4.925781 11.484375 4.917969 11.472656 4.917969 11.449219 L 4.921875 11.414062 L 3.285156 11.410156 L 1.652344 11.40625 L 1.617188 11.445312 M 7.996094 11.960938 C 7.976562 11.980469 7.984375 12 8.015625 12.015625 C 8.039062 12.027344 8.042969 12.027344 8.042969 12.007812 C 8.035156 11.976562 8.007812 11.949219 7.996094 11.960938 M 8.554688 12.617188 C 8.566406 12.648438 8.605469 12.660156 8.601562 12.628906 C 8.597656 12.613281 8.585938 12.601562 8.570312 12.597656 C 8.554688 12.597656 8.550781 12.605469 8.554688 12.617188 M 5.472656 12.664062 C 5.472656 12.675781 5.484375 12.6875 5.496094 12.6875 C 5.519531 12.6875 5.519531 12.683594 5.503906 12.664062 C 5.492188 12.652344 5.480469 12.640625 5.476562 12.640625 C 5.476562 12.640625 5.472656 12.652344 5.472656 12.664062 M 5.550781 12.742188 C 5.550781 12.757812 5.5625 12.769531 5.578125 12.769531 C 5.597656 12.769531 5.601562 12.761719 5.585938 12.742188 C 5.574219 12.730469 5.5625 12.71875 5.558594 12.71875 C 5.554688 12.71875 5.550781 12.730469 5.550781 12.742188 M 8.875 12.777344 C 8.886719 12.808594 8.925781 12.816406 8.921875 12.789062 C 8.917969 12.773438 8.90625 12.761719 8.890625 12.757812 C 8.875 12.757812 8.871094 12.761719 8.875 12.777344 M 5.632812 12.824219 C 5.632812 12.835938 5.644531 12.847656 5.65625 12.847656 C 5.679688 12.847656 5.679688 12.84375 5.664062 12.824219 C 5.652344 12.8125 5.640625 12.800781 5.636719 12.800781 C 5.632812 12.800781 5.632812 12.8125 5.632812 12.824219 M 5.722656 12.878906 C 5.726562 12.898438 5.738281 12.910156 5.746094 12.910156 C 5.753906 12.910156 5.765625 12.910156 5.773438 12.910156 C 5.800781 12.910156 5.78125 12.855469 5.75 12.851562 C 5.722656 12.847656 5.714844 12.851562 5.722656 12.878906 M 9.984375 12.871094 C 9.972656 12.882812 9.972656 12.898438 9.980469 12.902344 C 9.988281 12.90625 10.003906 12.902344 10.015625 12.890625 C 10.027344 12.875 10.027344 12.863281 10.019531 12.859375 C 10.011719 12.851562 9.996094 12.859375 9.984375 12.871094 M 5.960938 13.039062 C 5.957031 13.046875 5.960938 13.058594 5.972656 13.066406 C 5.996094 13.082031 6.039062 13.089844 6.023438 13.074219 C 6.019531 13.070312 6.003906 13.0625 5.996094 13.0625 C 5.984375 13.0625 5.976562 13.054688 5.980469 13.042969 C 5.984375 13.019531 5.972656 13.019531 5.960938 13.039062 M 7.417969 13.433594 C 7.421875 13.445312 7.4375 13.457031 7.449219 13.457031 C 7.460938 13.457031 7.46875 13.445312 7.460938 13.433594 C 7.457031 13.417969 7.441406 13.40625 7.429688 13.40625 C 7.417969 13.40625 7.414062 13.417969 7.417969 13.433594 M 7.449219 13.488281 C 7.441406 13.496094 7.445312 13.515625 7.453125 13.53125 C 7.46875 13.554688 7.472656 13.554688 7.472656 13.515625 C 7.472656 13.46875 7.464844 13.460938 7.449219 13.488281 M 3.007812 13.671875 C 3.007812 13.683594 3.019531 13.695312 3.03125 13.703125 C 3.046875 13.707031 3.054688 13.703125 3.054688 13.6875 C 3.054688 13.675781 3.046875 13.664062 3.03125 13.65625 C 3.019531 13.652344 3.007812 13.65625 3.007812 13.671875 M 3.082031 13.722656 C 3.09375 13.746094 3.101562 13.75 3.132812 13.730469 C 3.148438 13.71875 3.144531 13.714844 3.113281 13.707031 C 3.085938 13.703125 3.078125 13.707031 3.082031 13.722656 M 3.113281 13.757812 C 3.105469 13.769531 3.113281 13.78125 3.128906 13.785156 C 3.164062 13.800781 3.175781 13.785156 3.144531 13.761719 C 3.128906 13.75 3.121094 13.746094 3.113281 13.757812 M 3.199219 13.796875 C 3.199219 13.800781 3.210938 13.8125 3.222656 13.824219 C 3.242188 13.839844 3.246094 13.839844 3.246094 13.816406 C 3.246094 13.804688 3.238281 13.792969 3.222656 13.792969 C 3.210938 13.792969 3.199219 13.792969 3.199219 13.796875 M 3.585938 14.128906 C 3.597656 14.136719 3.601562 14.144531 3.59375 14.144531 C 3.585938 14.144531 3.589844 14.15625 3.601562 14.167969 C 3.609375 14.179688 3.625 14.1875 3.636719 14.183594 C 3.652344 14.171875 3.605469 14.113281 3.578125 14.113281 C 3.566406 14.113281 3.570312 14.121094 3.585938 14.128906 M 3.8125 14.324219 C 3.816406 14.332031 3.828125 14.34375 3.84375 14.34375 C 3.859375 14.347656 3.867188 14.339844 3.859375 14.328125 C 3.851562 14.300781 3.800781 14.296875 3.8125 14.324219 M 4.074219 14.441406 C 4.054688 14.460938 4.0625 14.476562 4.09375 14.496094 C 4.117188 14.507812 4.125 14.507812 4.121094 14.488281 C 4.117188 14.457031 4.089844 14.429688 4.074219 14.441406 M 4.6875 14.78125 C 4.6875 14.792969 4.695312 14.804688 4.707031 14.8125 C 4.734375 14.828125 4.773438 14.832031 4.761719 14.820312 C 4.753906 14.8125 4.742188 14.808594 4.730469 14.808594 C 4.71875 14.808594 4.714844 14.796875 4.714844 14.789062 C 4.71875 14.777344 4.710938 14.769531 4.703125 14.769531 C 4.695312 14.769531 4.6875 14.773438 4.6875 14.78125 M 7.453125 14.875 C 7.453125 14.890625 7.449219 14.921875 7.449219 14.945312 C 7.449219 14.972656 7.441406 14.984375 7.421875 14.980469 C 7.402344 14.976562 7.390625 14.984375 7.390625 15.007812 C 7.390625 15.09375 7.464844 15.003906 7.46875 14.914062 C 7.472656 14.851562 7.457031 14.816406 7.453125 14.875 M 5.113281 14.925781 C 5.105469 14.9375 5.109375 14.941406 5.121094 14.941406 C 5.132812 14.9375 5.144531 14.945312 5.144531 14.953125 C 5.144531 14.964844 5.148438 14.976562 5.15625 14.984375 C 5.160156 14.988281 5.164062 14.984375 5.160156 14.96875 C 5.15625 14.929688 5.125 14.90625 5.113281 14.925781 M 5.355469 15.015625 C 5.367188 15.046875 5.40625 15.058594 5.402344 15.027344 C 5.398438 15.015625 5.386719 15 5.371094 15 C 5.355469 14.996094 5.347656 15.003906 5.355469 15.015625 M 5.648438 15.089844 C 5.648438 15.109375 5.664062 15.109375 5.695312 15.089844 C 5.714844 15.074219 5.714844 15.074219 5.683594 15.070312 C 5.664062 15.070312 5.648438 15.078125 5.648438 15.089844 M 5.671875 15.121094 C 5.660156 15.136719 5.699219 15.160156 5.726562 15.148438 C 5.738281 15.144531 5.730469 15.136719 5.710938 15.125 C 5.691406 15.113281 5.679688 15.109375 5.671875 15.121094 M 6.929688 15.246094 C 6.929688 15.269531 6.945312 15.269531 6.976562 15.246094 C 6.996094 15.234375 6.992188 15.234375 6.964844 15.230469 C 6.945312 15.230469 6.929688 15.238281 6.929688 15.246094 M 7.125 15.261719 C 7.128906 15.277344 7.117188 15.289062 7.101562 15.285156 C 7.085938 15.285156 7.078125 15.289062 7.082031 15.296875 C 7.085938 15.304688 7.105469 15.3125 7.121094 15.3125 C 7.152344 15.3125 7.164062 15.257812 7.136719 15.242188 C 7.128906 15.234375 7.125 15.246094 7.125 15.261719 M 6.953125 15.273438 C 6.9375 15.292969 6.960938 15.3125 7.011719 15.3125 C 7.039062 15.3125 7.054688 15.304688 7.046875 15.296875 C 7.042969 15.285156 7.03125 15.285156 7.023438 15.289062 C 7.011719 15.292969 6.996094 15.289062 6.984375 15.28125 C 6.972656 15.273438 6.960938 15.269531 6.953125 15.273438 "/>
<path style=" stroke:none;fill-rule:evenodd;fill:rgb(61.176471%,10.980392%,48.235294%);fill-opacity:1;" d="M 9.539062 3.84375 C 9.542969 3.855469 9.535156 3.863281 9.523438 3.859375 C 9.5 3.855469 9.5 3.886719 9.519531 3.917969 C 9.527344 3.933594 9.527344 3.949219 9.515625 3.957031 C 9.503906 3.964844 9.503906 3.96875 9.523438 3.960938 C 9.550781 3.953125 9.589844 3.988281 9.574219 4.003906 C 9.566406 4.011719 9.574219 4.027344 9.585938 4.042969 C 9.605469 4.066406 9.605469 4.066406 9.585938 4.058594 C 9.570312 4.046875 9.566406 4.050781 9.582031 4.078125 C 9.59375 4.097656 9.605469 4.113281 9.609375 4.113281 C 9.613281 4.113281 9.613281 4.105469 9.609375 4.097656 C 9.59375 4.074219 9.613281 4.078125 9.660156 4.105469 C 9.703125 4.132812 9.703125 4.132812 9.679688 4.101562 C 9.664062 4.085938 9.65625 4.0625 9.660156 4.046875 C 9.664062 4.035156 9.664062 4.027344 9.65625 4.035156 C 9.648438 4.042969 9.625 4.023438 9.597656 3.996094 C 9.5625 3.957031 9.558594 3.941406 9.578125 3.9375 C 9.589844 3.9375 9.601562 3.925781 9.601562 3.917969 C 9.601562 3.910156 9.617188 3.902344 9.640625 3.902344 C 9.683594 3.902344 9.707031 3.878906 9.671875 3.867188 C 9.660156 3.859375 9.648438 3.863281 9.648438 3.871094 C 9.648438 3.890625 9.601562 3.882812 9.578125 3.855469 C 9.5625 3.839844 9.5625 3.835938 9.582031 3.847656 C 9.597656 3.855469 9.601562 3.855469 9.59375 3.84375 C 9.578125 3.816406 9.535156 3.820312 9.539062 3.84375 M 9.9375 3.90625 C 9.9375 3.925781 9.949219 3.9375 9.96875 3.9375 C 9.988281 3.9375 9.996094 3.941406 9.992188 3.953125 C 9.988281 3.960938 9.992188 3.96875 10.003906 3.96875 C 10.015625 3.96875 10.027344 3.953125 10.027344 3.929688 C 10.027344 3.90625 10.019531 3.894531 10.007812 3.902344 C 9.984375 3.917969 9.960938 3.914062 9.949219 3.898438 C 9.941406 3.886719 9.9375 3.890625 9.9375 3.90625 M 10.046875 3.949219 C 10.046875 3.964844 10.113281 3.988281 10.125 3.976562 C 10.125 3.976562 10.109375 3.964844 10.089844 3.953125 C 10.066406 3.945312 10.046875 3.941406 10.046875 3.949219 M 10.304688 3.980469 C 10.304688 4.007812 10.332031 4.019531 10.34375 4 C 10.351562 3.988281 10.367188 3.984375 10.378906 3.992188 C 10.390625 3.996094 10.398438 3.992188 10.398438 3.984375 C 10.398438 3.960938 10.355469 3.964844 10.34375 3.984375 C 10.335938 3.996094 10.328125 3.996094 10.316406 3.980469 C 10.308594 3.96875 10.304688 3.964844 10.304688 3.980469 M 10.414062 4 C 10.414062 4.015625 10.445312 4.039062 10.476562 4.042969 C 10.5 4.046875 10.5 4.027344 10.476562 4.003906 C 10.453125 3.980469 10.414062 3.976562 10.414062 4 M 10.703125 4.058594 C 10.703125 4.085938 10.730469 4.101562 10.746094 4.078125 C 10.75 4.070312 10.765625 4.066406 10.777344 4.070312 C 10.789062 4.074219 10.800781 4.070312 10.800781 4.0625 C 10.800781 4.042969 10.757812 4.042969 10.742188 4.066406 C 10.734375 4.078125 10.726562 4.078125 10.71875 4.0625 C 10.710938 4.046875 10.703125 4.046875 10.703125 4.058594 M 10.816406 4.078125 C 10.816406 4.097656 10.847656 4.117188 10.875 4.121094 C 10.902344 4.125 10.902344 4.109375 10.875 4.082031 C 10.855469 4.058594 10.816406 4.058594 10.816406 4.078125 M 11.167969 4.144531 C 11.167969 4.160156 11.179688 4.164062 11.210938 4.160156 C 11.214844 4.15625 11.226562 4.164062 11.230469 4.175781 C 11.238281 4.1875 11.246094 4.1875 11.253906 4.167969 C 11.257812 4.152344 11.257812 4.144531 11.246094 4.152344 C 11.238281 4.15625 11.230469 4.152344 11.230469 4.144531 C 11.230469 4.136719 11.21875 4.128906 11.199219 4.128906 C 11.183594 4.128906 11.167969 4.136719 11.167969 4.144531 M 9.648438 4.160156 C 9.648438 4.1875 9.675781 4.191406 9.695312 4.167969 C 9.710938 4.148438 9.710938 4.144531 9.683594 4.144531 C 9.664062 4.144531 9.648438 4.152344 9.648438 4.160156 M 9.761719 4.238281 C 9.761719 4.261719 9.769531 4.273438 9.792969 4.273438 C 9.8125 4.273438 9.820312 4.265625 9.816406 4.253906 C 9.808594 4.246094 9.796875 4.246094 9.789062 4.25 C 9.777344 4.257812 9.773438 4.25 9.78125 4.234375 C 9.785156 4.21875 9.785156 4.207031 9.777344 4.207031 C 9.765625 4.207031 9.761719 4.222656 9.761719 4.238281 M 11.578125 4.226562 C 11.585938 4.238281 11.589844 4.253906 11.589844 4.261719 C 11.59375 4.269531 11.613281 4.28125 11.636719 4.289062 C 11.667969 4.296875 11.679688 4.296875 11.679688 4.277344 C 11.679688 4.238281 11.675781 4.230469 11.664062 4.234375 C 11.65625 4.238281 11.648438 4.234375 11.648438 4.222656 C 11.648438 4.214844 11.628906 4.207031 11.605469 4.207031 C 11.578125 4.207031 11.570312 4.214844 11.578125 4.226562 M 11.972656 4.324219 C 12.019531 4.371094 12.078125 4.390625 12.078125 4.359375 C 12.078125 4.320312 12.078125 4.3125 12.0625 4.316406 C 12.054688 4.316406 12.046875 4.3125 12.046875 4.304688 C 12.046875 4.296875 12.023438 4.289062 11.992188 4.289062 L 11.933594 4.289062 L 11.972656 4.324219 M 9.808594 4.320312 C 9.808594 4.347656 9.835938 4.351562 9.855469 4.328125 C 9.871094 4.308594 9.871094 4.304688 9.84375 4.304688 C 9.824219 4.304688 9.808594 4.3125 9.808594 4.320312 M 9.917969 4.363281 C 9.917969 4.371094 9.914062 4.386719 9.914062 4.402344 C 9.910156 4.417969 9.921875 4.425781 9.953125 4.425781 C 9.996094 4.425781 9.996094 4.425781 9.972656 4.390625 C 9.949219 4.351562 9.921875 4.339844 9.917969 4.363281 M 12.367188 4.386719 C 12.367188 4.417969 12.460938 4.457031 12.484375 4.433594 C 12.503906 4.417969 12.488281 4.382812 12.460938 4.386719 C 12.445312 4.386719 12.445312 4.390625 12.460938 4.394531 C 12.488281 4.40625 12.484375 4.425781 12.457031 4.425781 C 12.441406 4.425781 12.433594 4.414062 12.433594 4.394531 C 12.433594 4.367188 12.429688 4.367188 12.40625 4.386719 C 12.386719 4.402344 12.382812 4.402344 12.390625 4.386719 C 12.394531 4.378906 12.394531 4.367188 12.386719 4.367188 C 12.375 4.367188 12.367188 4.378906 12.367188 4.386719 M 10.03125 4.441406 C 10.027344 4.449219 10.027344 4.460938 10.03125 4.46875 C 10.035156 4.488281 10.003906 4.480469 9.996094 4.460938 C 9.988281 4.445312 9.984375 4.445312 9.984375 4.460938 C 9.984375 4.492188 10.019531 4.5 10.042969 4.476562 C 10.058594 4.460938 10.0625 4.449219 10.050781 4.441406 C 10.039062 4.433594 10.03125 4.4375 10.03125 4.441406 M 12.769531 4.46875 C 12.769531 4.496094 12.863281 4.535156 12.882812 4.515625 C 12.902344 4.496094 12.886719 4.464844 12.859375 4.464844 C 12.84375 4.464844 12.84375 4.46875 12.859375 4.472656 C 12.886719 4.484375 12.886719 4.507812 12.855469 4.507812 C 12.84375 4.507812 12.832031 4.492188 12.832031 4.476562 C 12.832031 4.449219 12.828125 4.445312 12.804688 4.464844 C 12.785156 4.480469 12.78125 4.480469 12.789062 4.46875 C 12.796875 4.457031 12.792969 4.449219 12.785156 4.449219 C 12.777344 4.449219 12.769531 4.457031 12.769531 4.46875 M 10.046875 4.496094 C 10.046875 4.503906 10.066406 4.511719 10.089844 4.511719 C 10.121094 4.511719 10.128906 4.519531 10.128906 4.550781 C 10.128906 4.574219 10.136719 4.59375 10.144531 4.59375 C 10.167969 4.59375 10.164062 4.554688 10.140625 4.523438 C 10.113281 4.492188 10.046875 4.472656 10.046875 4.496094 M 13.164062 4.550781 C 13.167969 4.566406 13.175781 4.574219 13.183594 4.570312 C 13.199219 4.558594 13.191406 4.6875 13.175781 4.699219 C 13.148438 4.722656 13.152344 4.742188 13.1875 4.746094 C 13.246094 4.75 13.25 4.535156 13.191406 4.53125 C 13.164062 4.53125 13.15625 4.535156 13.164062 4.550781 M 13.09375 4.757812 C 13.070312 4.777344 13.070312 4.785156 13.082031 4.800781 C 13.101562 4.820312 13.125 4.800781 13.128906 4.757812 C 13.132812 4.730469 13.132812 4.730469 13.09375 4.757812 M 10.464844 4.8125 C 10.464844 4.820312 10.480469 4.824219 10.503906 4.824219 C 10.523438 4.824219 10.539062 4.820312 10.535156 4.8125 C 10.53125 4.804688 10.511719 4.800781 10.496094 4.800781 C 10.476562 4.800781 10.464844 4.804688 10.464844 4.8125 M 10.613281 4.875 C 10.613281 4.90625 10.625 4.910156 10.664062 4.910156 C 10.710938 4.910156 10.710938 4.910156 10.671875 4.894531 C 10.644531 4.882812 10.636719 4.875 10.652344 4.867188 C 10.667969 4.855469 10.667969 4.851562 10.640625 4.84375 C 10.613281 4.835938 10.609375 4.84375 10.613281 4.875 M 12.9375 4.859375 C 12.921875 4.878906 12.925781 4.894531 12.953125 4.894531 C 12.964844 4.894531 12.976562 4.886719 12.976562 4.871094 C 12.976562 4.847656 12.957031 4.839844 12.9375 4.859375 M 10.769531 4.933594 C 10.769531 4.949219 10.78125 4.960938 10.796875 4.960938 C 10.820312 4.960938 10.820312 4.960938 10.800781 4.976562 C 10.78125 4.988281 10.800781 4.992188 10.855469 4.988281 C 10.910156 4.988281 10.925781 4.984375 10.902344 4.976562 C 10.886719 4.96875 10.863281 4.96875 10.851562 4.972656 C 10.835938 4.976562 10.832031 4.96875 10.835938 4.949219 C 10.839844 4.929688 10.828125 4.917969 10.804688 4.914062 C 10.78125 4.910156 10.769531 4.917969 10.769531 4.933594 M 10.9375 5.003906 C 10.933594 5.007812 10.933594 5.019531 10.9375 5.035156 C 10.945312 5.054688 10.953125 5.050781 10.972656 5.027344 C 10.984375 5.011719 10.988281 5.007812 10.984375 5.019531 C 10.980469 5.03125 10.980469 5.039062 10.992188 5.039062 C 11 5.039062 11.007812 5.046875 11.003906 5.050781 C 10.996094 5.058594 11.011719 5.066406 11.039062 5.066406 C 11.0625 5.066406 11.066406 5.066406 11.054688 5.0625 C 11.039062 5.058594 11.023438 5.039062 11.019531 5.023438 C 11.011719 4.996094 10.957031 4.984375 10.9375 5.003906 M 11.246094 5.097656 C 11.246094 5.125 11.273438 5.128906 11.289062 5.105469 C 11.292969 5.09375 11.304688 5.09375 11.316406 5.097656 C 11.324219 5.105469 11.328125 5.101562 11.320312 5.089844 C 11.304688 5.0625 11.246094 5.066406 11.246094 5.097656 M 12.4375 5.109375 C 12.4375 5.140625 12.445312 5.148438 12.464844 5.136719 C 12.511719 5.113281 12.511719 5.078125 12.46875 5.074219 C 12.4375 5.074219 12.433594 5.078125 12.4375 5.109375 M 12.390625 5.109375 C 12.386719 5.125 12.382812 5.140625 12.390625 5.148438 C 12.40625 5.164062 12.417969 5.140625 12.410156 5.109375 C 12.40625 5.082031 12.40625 5.082031 12.390625 5.109375 M 11.320312 5.132812 C 11.316406 5.140625 11.332031 5.148438 11.351562 5.148438 C 11.375 5.148438 11.386719 5.140625 11.382812 5.132812 C 11.378906 5.125 11.363281 5.121094 11.351562 5.121094 C 11.339844 5.121094 11.324219 5.125 11.320312 5.132812 M 6.546875 9.585938 C 6.523438 9.609375 6.523438 9.632812 6.542969 9.632812 C 6.554688 9.632812 6.558594 9.621094 6.554688 9.613281 C 6.554688 9.601562 6.5625 9.59375 6.570312 9.597656 C 6.582031 9.597656 6.59375 9.59375 6.59375 9.585938 C 6.59375 9.5625 6.570312 9.5625 6.546875 9.585938 M 5.113281 12.472656 C 5.097656 12.488281 5.089844 12.503906 5.089844 12.511719 C 5.089844 12.519531 5.050781 12.527344 5.007812 12.527344 C 4.933594 12.527344 4.929688 12.53125 4.929688 12.566406 C 4.929688 12.605469 4.921875 12.609375 4.847656 12.609375 C 4.773438 12.609375 4.769531 12.609375 4.769531 12.648438 C 4.769531 12.683594 4.761719 12.6875 4.6875 12.6875 C 4.613281 12.6875 4.609375 12.691406 4.609375 12.726562 C 4.609375 12.765625 4.601562 12.769531 4.527344 12.769531 C 4.453125 12.769531 4.449219 12.769531 4.449219 12.808594 C 4.449219 12.84375 4.441406 12.847656 4.367188 12.847656 C 4.292969 12.847656 4.289062 12.851562 4.289062 12.886719 C 4.289062 12.925781 4.28125 12.929688 4.207031 12.929688 C 4.132812 12.929688 4.128906 12.929688 4.128906 12.96875 C 4.128906 13 4.121094 13.007812 4.058594 13.011719 C 4.007812 13.015625 3.988281 13.023438 3.976562 13.050781 C 3.964844 13.078125 3.945312 13.085938 3.898438 13.089844 C 3.847656 13.09375 3.828125 13.105469 3.816406 13.132812 C 3.804688 13.15625 3.785156 13.167969 3.738281 13.171875 C 3.6875 13.175781 3.667969 13.183594 3.65625 13.210938 C 3.644531 13.238281 3.625 13.246094 3.578125 13.25 C 3.527344 13.253906 3.507812 13.265625 3.496094 13.292969 C 3.484375 13.320312 3.464844 13.328125 3.410156 13.332031 C 3.347656 13.335938 3.335938 13.339844 3.332031 13.371094 C 3.328125 13.402344 3.3125 13.40625 3.25 13.410156 C 3.1875 13.414062 3.175781 13.421875 3.171875 13.453125 C 3.167969 13.484375 3.15625 13.488281 3.085938 13.488281 L 3.007812 13.488281 L 3.007812 13.570312 C 3.007812 13.625 3.015625 13.652344 3.03125 13.65625 C 3.046875 13.664062 3.054688 13.675781 3.054688 13.691406 C 3.054688 13.703125 3.0625 13.710938 3.066406 13.710938 C 3.121094 13.703125 3.160156 13.714844 3.132812 13.730469 C 3.117188 13.738281 3.109375 13.753906 3.113281 13.761719 C 3.117188 13.769531 3.128906 13.773438 3.136719 13.769531 C 3.144531 13.761719 3.15625 13.765625 3.160156 13.777344 C 3.164062 13.785156 3.1875 13.792969 3.207031 13.792969 C 3.238281 13.792969 3.246094 13.800781 3.246094 13.832031 C 3.246094 13.863281 3.257812 13.871094 3.289062 13.871094 C 3.320312 13.871094 3.328125 13.878906 3.328125 13.910156 C 3.328125 13.945312 3.335938 13.953125 3.367188 13.953125 C 3.398438 13.953125 3.40625 13.960938 3.40625 13.992188 C 3.40625 14.023438 3.417969 14.03125 3.453125 14.035156 C 3.476562 14.039062 3.496094 14.050781 3.496094 14.0625 C 3.496094 14.078125 3.519531 14.09375 3.546875 14.105469 C 3.578125 14.113281 3.613281 14.136719 3.628906 14.152344 C 3.644531 14.167969 3.644531 14.175781 3.632812 14.167969 C 3.617188 14.160156 3.613281 14.160156 3.621094 14.171875 C 3.628906 14.183594 3.65625 14.191406 3.679688 14.191406 C 3.714844 14.191406 3.726562 14.199219 3.730469 14.226562 C 3.734375 14.253906 3.75 14.265625 3.78125 14.269531 C 3.804688 14.273438 3.820312 14.28125 3.816406 14.289062 C 3.808594 14.296875 3.816406 14.304688 3.832031 14.304688 C 3.84375 14.304688 3.855469 14.3125 3.855469 14.320312 C 3.855469 14.332031 3.847656 14.332031 3.835938 14.328125 C 3.824219 14.320312 3.820312 14.320312 3.828125 14.328125 C 3.84375 14.34375 3.851562 14.347656 3.917969 14.351562 C 3.957031 14.351562 3.96875 14.359375 3.976562 14.390625 C 3.984375 14.417969 4 14.433594 4.027344 14.433594 C 4.046875 14.433594 4.070312 14.4375 4.078125 14.4375 C 4.101562 14.441406 4.121094 14.464844 4.121094 14.484375 C 4.121094 14.496094 4.136719 14.507812 4.160156 14.507812 C 4.222656 14.515625 4.25 14.527344 4.230469 14.539062 C 4.21875 14.546875 4.21875 14.558594 4.234375 14.574219 C 4.246094 14.585938 4.257812 14.585938 4.257812 14.578125 C 4.257812 14.566406 4.261719 14.558594 4.273438 14.558594 C 4.28125 14.558594 4.285156 14.566406 4.28125 14.574219 C 4.273438 14.585938 4.292969 14.59375 4.324219 14.59375 C 4.375 14.59375 4.382812 14.597656 4.375 14.625 C 4.371094 14.640625 4.378906 14.65625 4.390625 14.65625 C 4.398438 14.660156 4.414062 14.660156 4.425781 14.664062 C 4.433594 14.664062 4.464844 14.667969 4.492188 14.667969 C 4.53125 14.671875 4.539062 14.679688 4.535156 14.703125 C 4.53125 14.726562 4.542969 14.734375 4.597656 14.742188 C 4.691406 14.757812 4.722656 14.769531 4.710938 14.785156 C 4.707031 14.789062 4.714844 14.804688 4.730469 14.816406 C 4.753906 14.835938 4.757812 14.835938 4.746094 14.816406 C 4.734375 14.796875 4.734375 14.796875 4.753906 14.8125 C 4.765625 14.824219 4.808594 14.832031 4.851562 14.832031 C 4.917969 14.832031 4.929688 14.835938 4.929688 14.863281 C 4.929688 14.898438 4.957031 14.910156 5.0625 14.914062 C 5.132812 14.917969 5.160156 14.929688 5.160156 14.96875 C 5.160156 14.976562 5.214844 14.988281 5.28125 14.992188 C 5.390625 15 5.402344 15.003906 5.40625 15.035156 C 5.410156 15.070312 5.417969 15.070312 5.5625 15.070312 C 5.703125 15.070312 5.714844 15.074219 5.6875 15.09375 C 5.671875 15.109375 5.660156 15.121094 5.664062 15.121094 C 5.667969 15.121094 5.6875 15.125 5.703125 15.132812 C 5.722656 15.136719 5.804688 15.144531 5.886719 15.148438 C 6.015625 15.152344 6.042969 15.160156 6.070312 15.1875 C 6.109375 15.230469 6.054688 15.226562 6.570312 15.230469 C 6.875 15.230469 6.992188 15.238281 6.972656 15.25 C 6.933594 15.273438 6.949219 15.292969 7 15.289062 C 7.023438 15.285156 7.042969 15.289062 7.050781 15.296875 C 7.054688 15.304688 7.066406 15.3125 7.074219 15.3125 C 7.082031 15.3125 7.085938 15.304688 7.082031 15.296875 C 7.078125 15.289062 7.085938 15.285156 7.101562 15.285156 C 7.117188 15.289062 7.128906 15.277344 7.125 15.261719 C 7.125 15.246094 7.128906 15.234375 7.132812 15.234375 C 7.238281 15.246094 7.3125 15.230469 7.3125 15.191406 C 7.3125 15.160156 7.320312 15.152344 7.351562 15.152344 C 7.390625 15.152344 7.390625 15.148438 7.390625 15.0625 C 7.390625 14.988281 7.394531 14.972656 7.414062 14.980469 C 7.445312 14.992188 7.480469 14.9375 7.457031 14.921875 C 7.445312 14.914062 7.445312 14.894531 7.457031 14.871094 C 7.480469 14.8125 7.476562 13.574219 7.453125 13.535156 C 7.441406 13.511719 7.441406 13.496094 7.457031 13.480469 C 7.472656 13.460938 7.472656 13.457031 7.457031 13.457031 C 7.445312 13.457031 7.425781 13.445312 7.417969 13.433594 C 7.402344 13.414062 7.351562 13.410156 7.179688 13.40625 C 6.992188 13.40625 6.917969 13.394531 6.972656 13.375 C 6.980469 13.371094 6.980469 13.359375 6.964844 13.347656 C 6.953125 13.335938 6.945312 13.332031 6.945312 13.34375 C 6.945312 13.355469 6.9375 13.355469 6.925781 13.347656 C 6.898438 13.332031 6.898438 13.332031 6.683594 13.332031 L 6.511719 13.328125 L 6.511719 13.285156 C 6.511719 13.257812 6.503906 13.246094 6.484375 13.25 C 6.347656 13.261719 6.273438 13.246094 6.273438 13.207031 C 6.273438 13.171875 6.265625 13.167969 6.191406 13.167969 C 6.121094 13.167969 6.113281 13.164062 6.113281 13.136719 C 6.113281 13.105469 6.085938 13.09375 6.011719 13.082031 C 5.980469 13.078125 5.960938 13.058594 5.960938 13.035156 C 5.960938 13.023438 5.941406 13.015625 5.914062 13.011719 C 5.878906 13.007812 5.871094 12.996094 5.871094 12.964844 C 5.871094 12.9375 5.867188 12.929688 5.863281 12.941406 C 5.855469 12.953125 5.84375 12.953125 5.816406 12.933594 C 5.792969 12.921875 5.773438 12.910156 5.769531 12.910156 C 5.738281 12.914062 5.730469 12.910156 5.722656 12.878906 C 5.71875 12.859375 5.703125 12.847656 5.671875 12.847656 C 5.640625 12.847656 5.632812 12.839844 5.632812 12.808594 C 5.632812 12.777344 5.625 12.769531 5.59375 12.769531 C 5.558594 12.769531 5.550781 12.761719 5.550781 12.726562 C 5.550781 12.695312 5.542969 12.6875 5.511719 12.6875 C 5.476562 12.6875 5.472656 12.679688 5.472656 12.640625 C 5.472656 12.609375 5.464844 12.59375 5.457031 12.601562 C 5.445312 12.605469 5.441406 12.601562 5.441406 12.59375 C 5.441406 12.582031 5.449219 12.574219 5.457031 12.574219 C 5.464844 12.574219 5.464844 12.566406 5.453125 12.554688 C 5.4375 12.539062 5.429688 12.535156 5.421875 12.550781 C 5.410156 12.566406 5.375 12.5 5.375 12.464844 C 5.375 12.4375 5.140625 12.445312 5.113281 12.472656 "/>
<path style=" stroke:none;fill-rule:evenodd;fill:rgb(83.137255%,61.176471%,89.411765%);fill-opacity:1;" d="M 6.277344 3.589844 C 6.292969 3.632812 6.25 3.644531 6.046875 3.648438 C 5.851562 3.652344 5.808594 3.660156 5.808594 3.707031 C 5.808594 3.722656 5.773438 3.726562 5.648438 3.726562 L 5.488281 3.726562 L 5.488281 3.769531 C 5.488281 3.808594 5.484375 3.808594 5.375 3.808594 C 5.273438 3.808594 5.257812 3.8125 5.230469 3.847656 C 5.203125 3.882812 5.183594 3.886719 5.101562 3.886719 C 5.011719 3.886719 5.007812 3.890625 5.007812 3.929688 C 5.007812 3.964844 5.003906 3.96875 4.917969 3.96875 C 4.84375 3.96875 4.824219 3.972656 4.792969 4.007812 C 4.769531 4.035156 4.738281 4.046875 4.707031 4.046875 C 4.660156 4.046875 4.609375 4.082031 4.609375 4.113281 C 4.609375 4.121094 4.578125 4.128906 4.539062 4.132812 C 4.488281 4.136719 4.46875 4.144531 4.457031 4.171875 C 4.445312 4.199219 4.425781 4.207031 4.367188 4.210938 C 4.308594 4.214844 4.296875 4.222656 4.289062 4.253906 C 4.285156 4.28125 4.273438 4.289062 4.230469 4.289062 C 4.144531 4.292969 4.136719 4.296875 4.132812 4.316406 C 4.132812 4.328125 4.132812 4.34375 4.128906 4.351562 C 4.128906 4.359375 4.109375 4.367188 4.089844 4.367188 C 4.0625 4.367188 4.046875 4.378906 4.046875 4.402344 C 4.039062 4.433594 4.027344 4.441406 3.964844 4.445312 C 3.894531 4.449219 3.886719 4.453125 3.886719 4.488281 C 3.886719 4.519531 3.878906 4.527344 3.847656 4.527344 C 3.824219 4.527344 3.789062 4.546875 3.769531 4.566406 C 3.746094 4.589844 3.714844 4.609375 3.699219 4.609375 C 3.683594 4.613281 3.664062 4.632812 3.65625 4.652344 C 3.648438 4.675781 3.625 4.6875 3.605469 4.6875 C 3.578125 4.6875 3.566406 4.695312 3.566406 4.726562 C 3.566406 4.761719 3.558594 4.769531 3.527344 4.769531 C 3.503906 4.769531 3.46875 4.785156 3.449219 4.808594 C 3.425781 4.828125 3.390625 4.847656 3.371094 4.851562 C 3.347656 4.855469 3.335938 4.867188 3.332031 4.890625 C 3.328125 4.921875 3.300781 4.9375 3.261719 4.929688 C 3.253906 4.929688 3.25 4.933594 3.25 4.941406 C 3.257812 4.980469 3.242188 5.007812 3.210938 5.011719 C 3.1875 5.015625 3.175781 5.027344 3.171875 5.050781 C 3.167969 5.078125 3.15625 5.089844 3.125 5.089844 C 3.097656 5.089844 3.089844 5.097656 3.089844 5.128906 C 3.089844 5.160156 3.078125 5.167969 3.046875 5.167969 C 3.015625 5.167969 3.007812 5.175781 3.007812 5.207031 C 3.007812 5.238281 3 5.246094 2.96875 5.246094 C 2.9375 5.246094 2.929688 5.257812 2.929688 5.285156 C 2.929688 5.316406 2.917969 5.328125 2.890625 5.332031 C 2.867188 5.335938 2.855469 5.347656 2.851562 5.371094 C 2.847656 5.398438 2.835938 5.40625 2.808594 5.40625 C 2.777344 5.40625 2.769531 5.417969 2.769531 5.445312 C 2.769531 5.476562 2.757812 5.488281 2.730469 5.492188 C 2.707031 5.496094 2.695312 5.507812 2.691406 5.53125 C 2.6875 5.558594 2.675781 5.566406 2.648438 5.566406 C 2.617188 5.566406 2.609375 5.578125 2.609375 5.609375 C 2.609375 5.628906 2.601562 5.648438 2.59375 5.648438 C 2.582031 5.652344 2.566406 5.652344 2.558594 5.652344 C 2.546875 5.65625 2.535156 5.675781 2.53125 5.703125 C 2.53125 5.730469 2.507812 5.769531 2.488281 5.789062 C 2.464844 5.804688 2.449219 5.835938 2.449219 5.855469 C 2.449219 5.878906 2.4375 5.886719 2.40625 5.886719 C 2.378906 5.886719 2.367188 5.894531 2.367188 5.925781 C 2.367188 5.945312 2.355469 5.964844 2.332031 5.976562 C 2.304688 5.988281 2.292969 6.007812 2.289062 6.054688 C 2.28125 6.105469 2.273438 6.121094 2.242188 6.125 C 2.21875 6.128906 2.207031 6.140625 2.207031 6.167969 C 2.207031 6.191406 2.195312 6.210938 2.175781 6.214844 C 2.144531 6.226562 2.136719 6.246094 2.125 6.328125 C 2.121094 6.347656 2.105469 6.363281 2.082031 6.363281 C 2.058594 6.367188 2.046875 6.382812 2.046875 6.414062 C 2.042969 6.476562 2.039062 6.488281 2.027344 6.507812 C 2.019531 6.519531 2.003906 6.523438 1.992188 6.519531 C 1.972656 6.511719 1.96875 6.519531 1.96875 6.558594 C 1.96875 6.59375 1.960938 6.605469 1.933594 6.609375 C 1.902344 6.617188 1.894531 6.628906 1.890625 6.691406 C 1.886719 6.734375 1.878906 6.769531 1.871094 6.769531 C 1.839844 6.769531 1.808594 6.824219 1.808594 6.882812 C 1.808594 6.933594 1.804688 6.945312 1.785156 6.9375 C 1.769531 6.933594 1.761719 6.9375 1.765625 6.949219 C 1.765625 6.960938 1.761719 6.96875 1.753906 6.964844 C 1.742188 6.964844 1.734375 6.996094 1.730469 7.039062 C 1.726562 7.089844 1.714844 7.125 1.6875 7.152344 C 1.660156 7.183594 1.648438 7.210938 1.648438 7.257812 C 1.648438 7.308594 1.640625 7.324219 1.613281 7.335938 C 1.582031 7.351562 1.574219 7.367188 1.570312 7.460938 C 1.566406 7.566406 1.558594 7.578125 1.503906 7.570312 C 1.496094 7.570312 1.492188 7.621094 1.488281 7.683594 C 1.484375 7.8125 1.488281 7.808594 1.445312 7.816406 C 1.410156 7.820312 1.414062 7.8125 1.410156 8 C 1.410156 8.113281 1.402344 8.140625 1.386719 8.132812 C 1.351562 8.121094 1.332031 8.164062 1.332031 8.257812 C 1.335938 8.339844 1.339844 8.34375 1.378906 8.347656 C 1.414062 8.351562 1.421875 8.363281 1.417969 8.386719 C 1.414062 8.425781 1.414062 8.425781 1.554688 8.429688 C 1.644531 8.433594 1.648438 8.433594 1.648438 8.472656 C 1.648438 8.507812 1.652344 8.511719 1.726562 8.511719 C 1.804688 8.511719 1.820312 8.523438 1.808594 8.578125 C 1.808594 8.585938 1.847656 8.59375 1.894531 8.59375 C 1.960938 8.59375 1.980469 8.597656 1.976562 8.613281 C 1.96875 8.632812 2.011719 8.6875 2.027344 8.675781 C 2.0625 8.652344 2.207031 8.675781 2.210938 8.707031 C 2.214844 8.738281 2.226562 8.746094 2.289062 8.75 C 2.359375 8.753906 2.390625 8.773438 2.378906 8.808594 C 2.371094 8.820312 2.402344 8.832031 2.464844 8.835938 C 2.546875 8.839844 2.664062 8.894531 2.59375 8.894531 C 2.585938 8.894531 2.574219 8.890625 2.574219 8.878906 C 2.574219 8.871094 2.566406 8.863281 2.558594 8.863281 C 2.546875 8.863281 2.546875 8.871094 2.558594 8.886719 C 2.574219 8.902344 2.609375 8.910156 2.671875 8.910156 C 2.757812 8.910156 2.765625 8.914062 2.769531 8.949219 C 2.773438 8.980469 2.789062 8.984375 2.855469 8.992188 C 2.921875 9 2.9375 9.003906 2.9375 9.03125 C 2.9375 9.058594 2.949219 9.066406 3.015625 9.070312 C 3.074219 9.074219 3.105469 9.085938 3.132812 9.113281 C 3.164062 9.144531 3.1875 9.152344 3.25 9.152344 C 3.328125 9.152344 3.339844 9.164062 3.328125 9.21875 C 3.328125 9.226562 3.367188 9.230469 3.414062 9.230469 C 3.484375 9.230469 3.5 9.238281 3.496094 9.253906 C 3.480469 9.292969 3.511719 9.308594 3.640625 9.308594 C 3.722656 9.3125 3.726562 9.3125 3.726562 9.351562 C 3.726562 9.390625 3.734375 9.390625 3.808594 9.390625 C 3.875 9.390625 3.886719 9.398438 3.886719 9.421875 C 3.886719 9.453125 3.929688 9.472656 4.003906 9.472656 C 4.035156 9.472656 4.0625 9.484375 4.082031 9.511719 C 4.109375 9.546875 4.128906 9.550781 4.199219 9.550781 C 4.277344 9.550781 4.285156 9.554688 4.289062 9.589844 C 4.296875 9.621094 4.308594 9.625 4.378906 9.628906 C 4.4375 9.632812 4.460938 9.640625 4.453125 9.652344 C 4.449219 9.671875 4.492188 9.726562 4.507812 9.714844 C 4.546875 9.6875 4.6875 9.714844 4.6875 9.753906 C 4.6875 9.789062 4.691406 9.792969 4.769531 9.792969 C 4.8125 9.792969 4.847656 9.800781 4.851562 9.808594 C 4.851562 9.816406 4.851562 9.832031 4.855469 9.84375 C 4.855469 9.855469 4.890625 9.867188 4.964844 9.867188 C 5.0625 9.871094 5.074219 9.878906 5.089844 9.914062 C 5.101562 9.945312 5.113281 9.953125 5.179688 9.953125 C 5.238281 9.953125 5.265625 9.960938 5.285156 9.984375 C 5.300781 10 5.320312 10.015625 5.328125 10.015625 C 5.335938 10.015625 5.351562 10 5.363281 9.984375 C 5.375 9.964844 5.402344 9.953125 5.429688 9.953125 C 5.464844 9.953125 5.472656 9.945312 5.472656 9.914062 C 5.472656 9.875 5.507812 9.847656 5.539062 9.863281 C 5.546875 9.871094 5.546875 9.863281 5.542969 9.851562 C 5.535156 9.824219 5.558594 9.789062 5.59375 9.785156 C 5.609375 9.78125 5.625 9.773438 5.625 9.761719 C 5.628906 9.753906 5.628906 9.738281 5.628906 9.730469 C 5.632812 9.722656 5.648438 9.710938 5.667969 9.710938 C 5.691406 9.707031 5.707031 9.691406 5.710938 9.667969 C 5.710938 9.648438 5.726562 9.632812 5.75 9.628906 C 5.769531 9.625 5.785156 9.609375 5.789062 9.589844 C 5.792969 9.5625 5.804688 9.550781 5.832031 9.550781 C 5.863281 9.550781 5.871094 9.542969 5.871094 9.511719 C 5.871094 9.476562 5.878906 9.472656 5.925781 9.46875 C 6.015625 9.46875 6.023438 9.464844 6.023438 9.433594 C 6.023438 9.410156 6.035156 9.398438 6.066406 9.394531 C 6.101562 9.390625 6.113281 9.382812 6.113281 9.351562 C 6.113281 9.316406 6.117188 9.3125 6.199219 9.308594 C 6.328125 9.308594 6.34375 9.300781 6.34375 9.257812 C 6.34375 9.246094 6.382812 9.238281 6.445312 9.230469 C 6.523438 9.226562 6.550781 9.214844 6.574219 9.1875 C 6.597656 9.15625 6.613281 9.152344 6.8125 9.152344 C 6.980469 9.148438 7.023438 9.144531 7.023438 9.125 C 7.023438 9.113281 7.035156 9.105469 7.050781 9.105469 C 7.0625 9.105469 7.070312 9.097656 7.0625 9.089844 C 7.058594 9.078125 7.128906 9.070312 7.261719 9.070312 L 7.472656 9.070312 L 7.46875 6.410156 L 7.464844 3.753906 L 7.429688 3.734375 C 7.40625 3.726562 7.390625 3.707031 7.390625 3.683594 C 7.390625 3.65625 7.382812 3.648438 7.351562 3.648438 C 7.320312 3.648438 7.3125 3.640625 7.3125 3.609375 L 7.3125 3.566406 L 6.789062 3.566406 C 6.34375 3.566406 6.269531 3.570312 6.277344 3.589844 M 9.648438 3.902344 C 9.628906 3.902344 9.601562 3.914062 9.59375 3.925781 C 9.574219 3.945312 9.566406 4.003906 9.582031 3.992188 C 9.589844 3.988281 9.605469 4 9.617188 4.015625 C 9.628906 4.03125 9.644531 4.042969 9.652344 4.035156 C 9.664062 4.03125 9.664062 4.039062 9.660156 4.050781 C 9.652344 4.066406 9.660156 4.085938 9.671875 4.097656 C 9.6875 4.109375 9.691406 4.121094 9.6875 4.125 C 9.683594 4.128906 9.699219 4.148438 9.722656 4.171875 C 9.75 4.191406 9.789062 4.226562 9.8125 4.25 C 9.835938 4.269531 9.851562 4.289062 9.847656 4.289062 C 9.839844 4.289062 9.851562 4.300781 9.871094 4.320312 C 9.890625 4.335938 9.90625 4.355469 9.90625 4.363281 C 9.90625 4.371094 9.910156 4.378906 9.914062 4.382812 C 9.921875 4.386719 9.921875 4.382812 9.914062 4.371094 C 9.890625 4.332031 9.949219 4.351562 9.972656 4.390625 C 9.988281 4.414062 10.011719 4.433594 10.023438 4.433594 C 10.035156 4.433594 10.054688 4.445312 10.0625 4.464844 C 10.074219 4.480469 10.09375 4.496094 10.105469 4.496094 C 10.121094 4.496094 10.140625 4.519531 10.148438 4.542969 C 10.160156 4.574219 10.179688 4.59375 10.195312 4.59375 C 10.210938 4.59375 10.222656 4.605469 10.222656 4.617188 C 10.222656 4.632812 10.234375 4.640625 10.246094 4.632812 C 10.261719 4.628906 10.273438 4.632812 10.273438 4.648438 C 10.273438 4.664062 10.289062 4.671875 10.328125 4.671875 C 10.371094 4.671875 10.386719 4.679688 10.378906 4.695312 C 10.367188 4.722656 10.398438 4.753906 10.445312 4.753906 C 10.472656 4.753906 10.480469 4.757812 10.472656 4.777344 C 10.46875 4.792969 10.476562 4.800781 10.496094 4.800781 C 10.515625 4.800781 10.527344 4.808594 10.519531 4.816406 C 10.515625 4.824219 10.523438 4.828125 10.539062 4.824219 C 10.554688 4.824219 10.59375 4.828125 10.625 4.839844 C 10.65625 4.851562 10.667969 4.863281 10.65625 4.863281 C 10.609375 4.867188 10.667969 4.894531 10.738281 4.90625 C 10.835938 4.917969 10.847656 4.921875 10.839844 4.953125 C 10.832031 4.964844 10.835938 4.976562 10.851562 4.976562 C 10.863281 4.980469 10.882812 4.980469 10.894531 4.984375 C 10.910156 4.984375 10.941406 4.988281 10.964844 4.988281 C 10.992188 4.992188 11.011719 5.003906 11.019531 5.023438 C 11.027344 5.042969 11.039062 5.058594 11.042969 5.058594 C 11.050781 5.054688 11.058594 5.054688 11.058594 5.058594 C 11.097656 5.070312 11.144531 5.074219 11.21875 5.074219 C 11.269531 5.070312 11.316406 5.078125 11.320312 5.089844 C 11.324219 5.097656 11.320312 5.101562 11.3125 5.101562 C 11.300781 5.097656 11.289062 5.105469 11.285156 5.117188 C 11.277344 5.132812 11.289062 5.136719 11.324219 5.128906 C 11.351562 5.121094 11.378906 5.125 11.382812 5.132812 C 11.390625 5.144531 11.535156 5.152344 11.855469 5.160156 C 11.90625 5.160156 11.953125 5.164062 11.960938 5.171875 C 11.972656 5.179688 11.984375 5.179688 11.992188 5.171875 C 12.007812 5.15625 12.042969 5.152344 12.214844 5.148438 C 12.347656 5.144531 12.371094 5.140625 12.386719 5.113281 C 12.402344 5.089844 12.40625 5.089844 12.417969 5.105469 C 12.429688 5.125 12.429688 5.121094 12.433594 5.101562 C 12.433594 5.078125 12.445312 5.070312 12.484375 5.070312 C 12.511719 5.066406 12.550781 5.066406 12.566406 5.066406 C 12.582031 5.066406 12.601562 5.054688 12.609375 5.039062 C 12.621094 5.019531 12.625 5.019531 12.625 5.042969 C 12.625 5.0625 12.632812 5.066406 12.648438 5.0625 C 12.667969 5.054688 12.667969 5.046875 12.65625 5.035156 C 12.625 5.003906 12.644531 4.992188 12.757812 4.988281 C 12.769531 4.984375 12.785156 4.980469 12.785156 4.972656 C 12.785156 4.964844 12.804688 4.96875 12.828125 4.976562 L 12.871094 4.992188 L 12.832031 4.957031 C 12.808594 4.941406 12.800781 4.929688 12.8125 4.933594 C 12.820312 4.941406 12.832031 4.933594 12.835938 4.925781 C 12.84375 4.910156 12.851562 4.910156 12.882812 4.925781 C 12.917969 4.949219 12.917969 4.945312 12.898438 4.921875 C 12.882812 4.90625 12.882812 4.894531 12.894531 4.894531 C 12.902344 4.894531 12.925781 4.882812 12.945312 4.863281 C 12.960938 4.847656 12.996094 4.832031 13.015625 4.832031 C 13.042969 4.832031 13.0625 4.820312 13.070312 4.792969 C 13.082031 4.769531 13.09375 4.75 13.105469 4.75 C 13.113281 4.75 13.128906 4.746094 13.136719 4.746094 C 13.144531 4.746094 13.152344 4.738281 13.15625 4.726562 C 13.160156 4.703125 13.191406 4.675781 13.203125 4.683594 C 13.207031 4.6875 13.21875 4.679688 13.226562 4.667969 C 13.230469 4.660156 13.230469 4.65625 13.21875 4.660156 C 13.199219 4.671875 13.179688 4.597656 13.195312 4.574219 C 13.199219 4.5625 13.199219 4.558594 13.1875 4.566406 C 13.179688 4.570312 13.167969 4.566406 13.164062 4.554688 C 13.160156 4.542969 13.113281 4.535156 13.011719 4.535156 C 12.871094 4.535156 12.792969 4.515625 12.765625 4.472656 C 12.757812 4.464844 12.6875 4.457031 12.605469 4.453125 C 12.46875 4.449219 12.390625 4.429688 12.367188 4.394531 C 12.359375 4.386719 12.28125 4.378906 12.1875 4.375 C 12.027344 4.371094 12.015625 4.371094 11.976562 4.332031 C 11.929688 4.285156 11.902344 4.277344 11.902344 4.308594 C 11.902344 4.320312 11.898438 4.324219 11.890625 4.308594 C 11.886719 4.300781 11.835938 4.292969 11.777344 4.296875 C 11.65625 4.296875 11.589844 4.285156 11.597656 4.257812 C 11.597656 4.25 11.585938 4.234375 11.566406 4.222656 C 11.542969 4.210938 11.535156 4.210938 11.535156 4.226562 C 11.535156 4.242188 11.53125 4.242188 11.519531 4.222656 C 11.507812 4.207031 11.503906 4.203125 11.503906 4.222656 C 11.503906 4.238281 11.5 4.238281 11.480469 4.226562 C 11.464844 4.210938 11.457031 4.210938 11.449219 4.226562 C 11.441406 4.242188 11.4375 4.242188 11.429688 4.226562 C 11.425781 4.21875 11.417969 4.210938 11.410156 4.214844 C 11.390625 4.226562 11.242188 4.191406 11.230469 4.171875 C 11.222656 4.160156 11.214844 4.160156 11.214844 4.164062 C 11.214844 4.171875 11.199219 4.167969 11.175781 4.152344 C 11.148438 4.132812 11.136719 4.132812 11.136719 4.148438 C 11.136719 4.160156 11.128906 4.160156 11.121094 4.144531 C 11.109375 4.125 11.105469 4.125 11.105469 4.140625 C 11.105469 4.160156 11.097656 4.160156 11.082031 4.144531 C 11.0625 4.132812 11.058594 4.132812 11.050781 4.148438 C 11.046875 4.160156 11.039062 4.164062 11.027344 4.152344 C 11.015625 4.136719 11 4.132812 10.898438 4.125 C 10.867188 4.121094 10.835938 4.109375 10.824219 4.089844 C 10.808594 4.070312 10.800781 4.0625 10.800781 4.070312 C 10.800781 4.074219 10.785156 4.074219 10.769531 4.066406 C 10.746094 4.050781 10.734375 4.054688 10.726562 4.066406 C 10.71875 4.078125 10.722656 4.082031 10.734375 4.070312 C 10.75 4.0625 10.753906 4.066406 10.742188 4.078125 C 10.734375 4.097656 10.726562 4.09375 10.710938 4.074219 C 10.699219 4.054688 10.6875 4.054688 10.675781 4.066406 C 10.660156 4.082031 10.65625 4.082031 10.65625 4.066406 C 10.65625 4.058594 10.625 4.050781 10.578125 4.050781 C 10.472656 4.046875 10.445312 4.042969 10.421875 4.007812 C 10.410156 3.992188 10.398438 3.984375 10.398438 3.988281 C 10.398438 3.996094 10.386719 3.992188 10.367188 3.984375 C 10.347656 3.972656 10.335938 3.972656 10.328125 3.988281 C 10.320312 4 10.320312 4 10.335938 3.992188 C 10.351562 3.984375 10.351562 3.984375 10.34375 4 C 10.332031 4.015625 10.328125 4.015625 10.308594 3.992188 C 10.292969 3.96875 10.289062 3.96875 10.289062 3.984375 C 10.289062 4 10.28125 4 10.277344 3.992188 C 10.269531 3.984375 10.203125 3.972656 10.128906 3.972656 C 10.050781 3.972656 9.988281 3.960938 9.988281 3.953125 C 9.984375 3.945312 9.972656 3.9375 9.957031 3.9375 C 9.945312 3.9375 9.9375 3.925781 9.9375 3.914062 C 9.9375 3.894531 9.742188 3.886719 9.648438 3.902344 M 11.847656 5.183594 C 11.8125 5.195312 11.808594 5.195312 11.835938 5.199219 C 11.855469 5.199219 11.878906 5.203125 11.890625 5.207031 C 11.902344 5.207031 11.90625 5.207031 11.898438 5.203125 C 11.894531 5.199219 11.890625 5.191406 11.898438 5.183594 C 11.902344 5.175781 11.902344 5.167969 11.902344 5.167969 C 11.898438 5.171875 11.875 5.175781 11.847656 5.183594 M 1.257812 8.859375 C 1.253906 8.863281 1.246094 9.175781 1.25 9.554688 L 1.25 10.234375 L 1.289062 10.253906 C 1.324219 10.269531 1.328125 10.277344 1.332031 10.46875 C 1.335938 10.65625 1.335938 10.664062 1.371094 10.667969 C 1.40625 10.675781 1.40625 10.679688 1.40625 10.832031 L 1.40625 10.992188 L 3.058594 10.992188 C 3.964844 10.992188 4.703125 10.996094 4.699219 11.003906 C 4.691406 11.007812 4.699219 11.023438 4.714844 11.035156 C 4.730469 11.046875 4.734375 11.054688 4.722656 11.046875 C 4.707031 11.039062 4.703125 11.042969 4.710938 11.050781 C 4.742188 11.101562 4.992188 11.054688 4.992188 11 C 4.992188 10.996094 4.992188 10.9375 4.992188 10.871094 C 4.992188 10.753906 4.992188 10.753906 5.03125 10.753906 C 5.070312 10.753906 5.070312 10.75 5.070312 10.621094 C 5.070312 10.519531 5.078125 10.488281 5.097656 10.472656 C 5.132812 10.445312 5.082031 10.371094 5.03125 10.367188 C 5.007812 10.367188 4.992188 10.355469 4.984375 10.332031 C 4.976562 10.300781 4.964844 10.292969 4.902344 10.289062 C 4.785156 10.285156 4.761719 10.277344 4.757812 10.257812 C 4.757812 10.25 4.753906 10.234375 4.753906 10.222656 C 4.753906 10.214844 4.714844 10.207031 4.671875 10.207031 C 4.597656 10.207031 4.59375 10.203125 4.59375 10.167969 C 4.59375 10.144531 4.582031 10.132812 4.566406 10.132812 C 4.507812 10.144531 4.40625 10.121094 4.40625 10.097656 C 4.40625 10.082031 4.394531 10.074219 4.378906 10.078125 C 4.363281 10.078125 4.351562 10.074219 4.351562 10.066406 C 4.351562 10.054688 4.316406 10.046875 4.273438 10.046875 C 4.203125 10.046875 4.195312 10.042969 4.1875 10.011719 C 4.183594 9.980469 4.171875 9.976562 4.105469 9.96875 C 4.050781 9.960938 4.023438 9.949219 4.011719 9.929688 C 4 9.910156 3.984375 9.894531 3.972656 9.894531 C 3.960938 9.894531 3.914062 9.890625 3.871094 9.890625 C 3.796875 9.886719 3.792969 9.886719 3.792969 9.847656 C 3.792969 9.8125 3.785156 9.808594 3.714844 9.808594 C 3.652344 9.808594 3.636719 9.800781 3.625 9.773438 C 3.613281 9.746094 3.59375 9.734375 3.542969 9.730469 C 3.507812 9.726562 3.46875 9.71875 3.457031 9.707031 C 3.4375 9.691406 3.4375 9.691406 3.449219 9.710938 C 3.460938 9.734375 3.457031 9.734375 3.433594 9.714844 C 3.421875 9.703125 3.414062 9.683594 3.417969 9.675781 C 3.425781 9.667969 3.421875 9.664062 3.410156 9.671875 C 3.398438 9.675781 3.390625 9.675781 3.390625 9.664062 C 3.390625 9.65625 3.359375 9.648438 3.3125 9.648438 C 3.242188 9.648438 3.234375 9.644531 3.230469 9.613281 C 3.226562 9.582031 3.210938 9.574219 3.148438 9.570312 C 3.078125 9.566406 3.0625 9.554688 3.070312 9.515625 C 3.070312 9.507812 3.066406 9.507812 3.054688 9.511719 C 3.046875 9.515625 3.039062 9.515625 3.039062 9.503906 C 3.039062 9.496094 3.035156 9.488281 3.027344 9.488281 C 2.925781 9.503906 2.832031 9.484375 2.832031 9.449219 C 2.832031 9.410156 2.828125 9.40625 2.753906 9.40625 C 2.691406 9.40625 2.675781 9.402344 2.664062 9.371094 C 2.652344 9.34375 2.632812 9.335938 2.574219 9.332031 C 2.523438 9.328125 2.496094 9.316406 2.46875 9.285156 C 2.441406 9.253906 2.421875 9.246094 2.355469 9.246094 C 2.285156 9.246094 2.273438 9.242188 2.269531 9.210938 C 2.265625 9.179688 2.253906 9.175781 2.191406 9.171875 C 2.128906 9.167969 2.113281 9.160156 2.105469 9.128906 C 2.097656 9.101562 2.085938 9.09375 2.027344 9.089844 C 1.90625 9.082031 1.878906 9.074219 1.878906 9.035156 C 1.878906 9.023438 1.847656 9.015625 1.796875 9.011719 C 1.71875 9.007812 1.710938 9.003906 1.710938 8.96875 C 1.710938 8.929688 1.707031 8.929688 1.632812 8.929688 C 1.5625 8.929688 1.546875 8.921875 1.535156 8.890625 C 1.515625 8.855469 1.292969 8.828125 1.257812 8.859375 "/>
<path style=" stroke:none;fill-rule:evenodd;fill:rgb(54.509804%,67.058824%,48.235294%);fill-opacity:1;" d="M 7.136719 2.933594 C 7.136719 2.949219 7.121094 2.96875 7.101562 2.976562 C 7.074219 2.984375 7.074219 2.992188 7.089844 2.992188 C 7.121094 2.992188 7.15625 2.953125 7.148438 2.925781 C 7.140625 2.910156 7.136719 2.914062 7.136719 2.933594 M 8.160156 9.503906 C 8.148438 9.511719 8.132812 9.515625 8.125 9.511719 C 8.121094 9.507812 8.105469 9.515625 8.09375 9.53125 C 8.074219 9.558594 8.074219 9.558594 8.105469 9.535156 C 8.132812 9.515625 8.132812 9.515625 8.113281 9.535156 C 8.09375 9.5625 8.089844 9.5625 8.015625 9.566406 C 7.976562 9.566406 7.96875 9.574219 7.96875 9.609375 C 7.96875 9.640625 7.960938 9.648438 7.929688 9.648438 C 7.894531 9.648438 7.890625 9.65625 7.886719 9.730469 C 7.882812 9.777344 7.875 9.8125 7.871094 9.808594 C 7.816406 9.753906 7.808594 9.835938 7.808594 10.566406 L 7.808594 11.285156 L 7.847656 11.316406 C 7.871094 11.332031 7.886719 11.351562 7.886719 11.355469 C 7.886719 11.363281 7.886719 11.464844 7.886719 11.578125 L 7.886719 11.792969 L 7.929688 11.792969 C 7.964844 11.792969 7.96875 11.796875 7.96875 11.867188 C 7.96875 11.933594 7.972656 11.945312 8.003906 11.960938 C 8.03125 11.972656 8.042969 11.992188 8.042969 12.042969 C 8.050781 12.105469 8.054688 12.113281 8.089844 12.113281 C 8.121094 12.113281 8.128906 12.121094 8.128906 12.160156 C 8.128906 12.222656 8.152344 12.273438 8.183594 12.273438 C 8.195312 12.273438 8.207031 12.289062 8.210938 12.308594 C 8.214844 12.332031 8.230469 12.347656 8.253906 12.347656 C 8.277344 12.351562 8.289062 12.363281 8.289062 12.394531 C 8.289062 12.421875 8.296875 12.433594 8.328125 12.433594 C 8.355469 12.433594 8.367188 12.441406 8.371094 12.46875 C 8.375 12.492188 8.390625 12.503906 8.410156 12.507812 C 8.433594 12.511719 8.449219 12.523438 8.449219 12.535156 C 8.449219 12.566406 8.480469 12.589844 8.542969 12.597656 C 8.574219 12.597656 8.601562 12.609375 8.601562 12.621094 C 8.601562 12.632812 8.605469 12.648438 8.605469 12.65625 C 8.605469 12.664062 8.628906 12.671875 8.65625 12.671875 C 8.691406 12.671875 8.703125 12.679688 8.699219 12.691406 C 8.6875 12.722656 8.722656 12.746094 8.792969 12.75 C 8.898438 12.757812 8.917969 12.761719 8.921875 12.78125 C 8.921875 12.792969 8.925781 12.808594 8.925781 12.816406 C 8.925781 12.824219 8.992188 12.832031 9.085938 12.832031 C 9.230469 12.832031 9.242188 12.835938 9.257812 12.867188 C 9.273438 12.902344 9.277344 12.902344 9.628906 12.90625 C 9.828125 12.910156 9.984375 12.90625 9.976562 12.902344 C 9.957031 12.882812 10.023438 12.832031 10.066406 12.832031 C 10.105469 12.832031 10.113281 12.824219 10.113281 12.792969 C 10.113281 12.761719 10.121094 12.753906 10.152344 12.753906 C 10.210938 12.753906 10.210938 12.722656 10.203125 11.679688 C 10.195312 10.734375 10.195312 10.699219 10.175781 10.710938 C 10.140625 10.734375 10.113281 10.675781 10.109375 10.574219 C 10.109375 10.511719 10.101562 10.46875 10.097656 10.472656 C 10.070312 10.488281 10.035156 10.4375 10.027344 10.382812 C 10.023438 10.320312 10 10.289062 9.972656 10.300781 C 9.957031 10.304688 9.953125 10.289062 9.953125 10.257812 C 9.953125 10.214844 9.945312 10.207031 9.910156 10.207031 C 9.878906 10.207031 9.871094 10.199219 9.871094 10.160156 C 9.871094 10.136719 9.863281 10.109375 9.855469 10.101562 C 9.839844 10.09375 9.839844 10.097656 9.847656 10.113281 C 9.855469 10.125 9.84375 10.121094 9.828125 10.105469 C 9.808594 10.085938 9.792969 10.058594 9.789062 10.039062 C 9.78125 10 9.757812 9.96875 9.734375 9.980469 C 9.71875 9.984375 9.667969 9.941406 9.675781 9.921875 C 9.675781 9.917969 9.667969 9.914062 9.65625 9.917969 C 9.640625 9.917969 9.632812 9.914062 9.632812 9.90625 C 9.632812 9.894531 9.613281 9.886719 9.59375 9.886719 C 9.558594 9.886719 9.550781 9.878906 9.550781 9.847656 C 9.550781 9.816406 9.542969 9.808594 9.511719 9.808594 C 9.480469 9.808594 9.472656 9.800781 9.472656 9.769531 C 9.472656 9.746094 9.464844 9.730469 9.460938 9.730469 C 9.382812 9.742188 9.3125 9.726562 9.308594 9.691406 C 9.304688 9.660156 9.292969 9.65625 9.226562 9.648438 C 9.1875 9.644531 9.152344 9.636719 9.15625 9.632812 C 9.175781 9.59375 9.101562 9.574219 8.929688 9.570312 C 8.742188 9.566406 8.726562 9.5625 8.726562 9.53125 C 8.726562 9.5 8.207031 9.472656 8.160156 9.503906 "/>
<path style=" stroke:none;fill-rule:evenodd;fill:rgb(94.509804%,65.098039%,56.470588%);fill-opacity:1;" d="M 4.886719 0.808594 C 4.867188 0.828125 4.847656 0.863281 4.847656 0.882812 C 4.847656 0.90625 4.835938 0.925781 4.8125 0.9375 L 4.777344 0.953125 L 4.773438 1.867188 C 4.769531 2.761719 4.773438 2.839844 4.800781 2.824219 C 4.808594 2.816406 4.8125 2.804688 4.804688 2.792969 C 4.796875 2.785156 4.804688 2.785156 4.820312 2.796875 C 4.839844 2.816406 4.847656 2.847656 4.847656 2.925781 C 4.847656 3.039062 4.855469 3.058594 4.898438 3.078125 C 4.921875 3.085938 4.929688 3.105469 4.929688 3.148438 C 4.929688 3.242188 5 3.3125 5.097656 3.3125 C 5.136719 3.3125 5.167969 3.304688 5.160156 3.296875 C 5.140625 3.265625 5.210938 3.238281 5.304688 3.234375 C 5.4375 3.230469 5.464844 3.222656 5.464844 3.203125 C 5.46875 3.191406 5.46875 3.175781 5.46875 3.167969 C 5.472656 3.160156 5.53125 3.152344 5.609375 3.152344 C 5.742188 3.152344 5.828125 3.128906 5.84375 3.089844 C 5.84375 3.082031 5.941406 3.074219 6.058594 3.070312 C 6.257812 3.066406 6.273438 3.066406 6.261719 3.039062 C 6.25 2.992188 6.257812 2.992188 6.71875 2.988281 L 7.144531 2.984375 L 7.148438 2.570312 C 7.152344 2.238281 7.148438 2.152344 7.132812 2.140625 C 7.117188 2.132812 7.117188 2.128906 7.136719 2.128906 C 7.152344 2.128906 7.148438 2.121094 7.125 2.097656 C 7.097656 2.070312 7.09375 2.070312 7.085938 2.09375 C 7.078125 2.109375 7.074219 2.054688 7.074219 1.980469 C 7.070312 1.839844 7.054688 1.78125 7.015625 1.753906 C 7 1.746094 6.992188 1.714844 6.992188 1.664062 C 6.992188 1.621094 6.984375 1.582031 6.976562 1.574219 C 6.96875 1.570312 6.960938 1.574219 6.960938 1.585938 C 6.960938 1.59375 6.949219 1.59375 6.9375 1.578125 C 6.921875 1.566406 6.910156 1.535156 6.910156 1.515625 C 6.910156 1.492188 6.894531 1.460938 6.871094 1.441406 C 6.851562 1.425781 6.832031 1.398438 6.832031 1.386719 C 6.832031 1.371094 6.824219 1.359375 6.8125 1.359375 C 6.796875 1.359375 6.800781 1.355469 6.816406 1.34375 C 6.835938 1.332031 6.832031 1.328125 6.796875 1.328125 C 6.761719 1.328125 6.753906 1.320312 6.753906 1.289062 C 6.753906 1.265625 6.746094 1.25 6.738281 1.25 C 6.691406 1.257812 6.671875 1.246094 6.671875 1.207031 C 6.671875 1.175781 6.664062 1.167969 6.632812 1.167969 C 6.59375 1.167969 6.582031 1.148438 6.589844 1.101562 C 6.589844 1.09375 6.574219 1.089844 6.554688 1.089844 C 6.535156 1.089844 6.503906 1.074219 6.488281 1.054688 C 6.46875 1.035156 6.464844 1.023438 6.476562 1.03125 C 6.488281 1.035156 6.496094 1.035156 6.496094 1.023438 C 6.496094 1.015625 6.484375 1.007812 6.46875 1.007812 C 6.378906 1.019531 6.351562 1.007812 6.351562 0.96875 C 6.351562 0.933594 6.34375 0.929688 6.296875 0.929688 C 6.257812 0.929688 6.234375 0.917969 6.210938 0.886719 C 6.183594 0.855469 6.164062 0.847656 6.101562 0.847656 C 6.027344 0.847656 6.023438 0.84375 6.023438 0.8125 L 6.023438 0.777344 L 5.476562 0.769531 L 4.925781 0.765625 L 4.886719 0.808594 M 5.183594 3.269531 C 5.175781 3.285156 5.171875 3.296875 5.179688 3.300781 C 5.191406 3.308594 5.203125 3.300781 5.214844 3.289062 C 5.226562 3.277344 5.226562 3.261719 5.21875 3.257812 C 5.210938 3.253906 5.195312 3.257812 5.183594 3.269531 M 6.59375 9.585938 C 6.59375 9.59375 6.585938 9.597656 6.578125 9.597656 C 6.574219 9.59375 6.566406 9.597656 6.566406 9.605469 C 6.558594 9.632812 6.519531 9.648438 6.445312 9.648438 C 6.375 9.648438 6.367188 9.652344 6.367188 9.6875 C 6.367188 9.726562 6.363281 9.726562 6.289062 9.726562 C 6.214844 9.726562 6.207031 9.730469 6.207031 9.765625 C 6.207031 9.800781 6.199219 9.808594 6.140625 9.8125 C 6.089844 9.816406 6.070312 9.824219 6.054688 9.851562 C 6.046875 9.871094 6.027344 9.890625 6.007812 9.890625 C 5.988281 9.894531 5.972656 9.910156 5.972656 9.933594 C 5.96875 9.957031 5.953125 9.96875 5.925781 9.96875 C 5.894531 9.96875 5.886719 9.976562 5.886719 10.007812 C 5.886719 10.039062 5.878906 10.046875 5.847656 10.046875 C 5.816406 10.046875 5.808594 10.054688 5.808594 10.085938 C 5.808594 10.113281 5.796875 10.128906 5.773438 10.132812 C 5.75 10.132812 5.734375 10.148438 5.730469 10.167969 C 5.726562 10.183594 5.707031 10.214844 5.6875 10.234375 C 5.664062 10.257812 5.648438 10.289062 5.648438 10.316406 C 5.648438 10.355469 5.640625 10.367188 5.613281 10.371094 C 5.582031 10.375 5.574219 10.386719 5.570312 10.449219 C 5.566406 10.503906 5.558594 10.523438 5.53125 10.535156 C 5.5 10.550781 5.496094 10.566406 5.492188 10.660156 C 5.488281 10.742188 5.480469 10.769531 5.464844 10.769531 C 5.414062 10.769531 5.40625 10.832031 5.40625 11.246094 C 5.40625 11.6875 5.410156 11.710938 5.457031 11.710938 C 5.484375 11.710938 5.503906 11.828125 5.492188 11.921875 C 5.488281 11.929688 5.507812 11.9375 5.527344 11.941406 C 5.566406 11.953125 5.582031 12.003906 5.570312 12.082031 C 5.570312 12.089844 5.585938 12.097656 5.609375 12.101562 C 5.632812 12.109375 5.648438 12.125 5.648438 12.144531 C 5.648438 12.164062 5.664062 12.195312 5.6875 12.210938 C 5.710938 12.230469 5.730469 12.269531 5.734375 12.296875 C 5.738281 12.332031 5.75 12.34375 5.773438 12.347656 C 5.792969 12.351562 5.808594 12.367188 5.8125 12.390625 C 5.8125 12.410156 5.828125 12.425781 5.851562 12.429688 C 5.871094 12.433594 5.886719 12.445312 5.890625 12.46875 C 5.894531 12.488281 5.910156 12.507812 5.9375 12.511719 C 5.960938 12.519531 5.976562 12.53125 5.976562 12.554688 C 5.976562 12.578125 5.988281 12.585938 6.027344 12.589844 C 6.058594 12.59375 6.089844 12.609375 6.109375 12.632812 C 6.125 12.652344 6.15625 12.671875 6.175781 12.675781 C 6.199219 12.679688 6.214844 12.691406 6.210938 12.703125 C 6.203125 12.734375 6.238281 12.75 6.308594 12.75 C 6.339844 12.75 6.367188 12.757812 6.371094 12.769531 C 6.371094 12.777344 6.371094 12.792969 6.375 12.804688 C 6.375 12.816406 6.414062 12.824219 6.488281 12.828125 C 6.613281 12.835938 6.609375 12.832031 6.613281 12.875 C 6.621094 12.914062 7.410156 12.929688 7.449219 12.890625 C 7.484375 12.855469 7.484375 9.625 7.449219 9.589844 C 7.421875 9.5625 6.59375 9.554688 6.59375 9.585938 "/>
</g>
</svg>
